<?xml version="1.0" encoding="utf-8" standalone="no"?>
<!DOCTYPE svg PUBLIC "-//W3C//DTD SVG 1.1//EN"
  "http://www.w3.org/Graphics/SVG/1.1/DTD/svg11.dtd">
<svg xmlns:xlink="http://www.w3.org/1999/xlink" width="1036.433125pt" height="359.607719pt" viewBox="0 0 1036.433125 359.607719" xmlns="http://www.w3.org/2000/svg" version="1.1">
 <metadata>
  <rdf:RDF xmlns:dc="http://purl.org/dc/elements/1.1/" xmlns:cc="http://creativecommons.org/ns#" xmlns:rdf="http://www.w3.org/1999/02/22-rdf-syntax-ns#">
   <cc:Work>
    <dc:type rdf:resource="http://purl.org/dc/dcmitype/StillImage"/>
    <dc:date>2026-09-09T22:34:25.926613</dc:date>
    <dc:format>image/svg+xml</dc:format>
    <dc:creator>
     <cc:Agent>
      <dc:title>Matplotlib v3.8.2, https://matplotlib.org/</dc:title>
     </cc:Agent>
    </dc:creator>
   </cc:Work>
  </rdf:RDF>
 </metadata>
 <defs>
  <style type="text/css">*{stroke-linejoin: round; stroke-linecap: butt}</style>
 </defs>
 <g id="figure_1">
  <g id="patch_1">
   <path d="M 0 359.607719 
L 1036.433125 359.607719 
L 1036.433125 0 
L 0 0 
z
" style="fill: #ffffff"/>
  </g>
  <g id="axes_1">
   <g id="patch_2">
    <path d="M 40.603125 296.768 
L 360.613125 296.768 
L 360.613125 68.968 
L 40.603125 68.968 
z
" style="fill: #ffffff"/>
   </g>
   <g id="PolyCollection_1">
    <defs>
     <path id="mbd38bef395" d="M 55.149034 -86.397679 
L 55.149034 -84.936721 
L 200.608125 -128.400245 
L 346.067216 -178.255463 
L 346.067216 -181.725241 
L 346.067216 -181.725241 
L 200.608125 -132.417881 
L 55.149034 -86.397679 
z
"/>
    </defs>
    <g clip-path="url(#p5653f23e84)">
     <use xlink:href="#mbd38bef395" x="0" y="359.607719" style="fill: #657888; fill-opacity: 0.12"/>
    </g>
   </g>
   <g id="PolyCollection_2">
    <defs>
     <path id="m1151c72ac5" d="M 55.149034 -82.380043 
L 55.149034 -80.736464 
L 200.608125 -102.833466 
L 346.067216 -129.861203 
L 346.067216 -133.148361 
L 346.067216 -133.148361 
L 200.608125 -105.390144 
L 55.149034 -82.380043 
z
"/>
    </defs>
    <g clip-path="url(#p5653f23e84)">
     <use xlink:href="#m1151c72ac5" x="0" y="359.607719" style="fill: #be8c42; fill-opacity: 0.12"/>
    </g>
   </g>
   <g id="PolyCollection_3">
    <defs>
     <path id="m0a28fe4078" d="M 55.149034 -88.771737 
L 55.149034 -86.580299 
L 200.608125 -104.111805 
L 346.067216 -121.64331 
L 346.067216 -124.930468 
L 346.067216 -124.930468 
L 200.608125 -107.764202 
L 55.149034 -88.771737 
z
"/>
    </defs>
    <g clip-path="url(#p5653f23e84)">
     <use xlink:href="#m0a28fe4078" x="0" y="359.607719" style="fill: #008c82; fill-opacity: 0.12"/>
    </g>
   </g>
   <g id="PolyCollection_4">
    <defs>
     <path id="m761bf1266c" d="M 55.149034 -108.494681 
L 55.149034 -105.938003 
L 200.608125 -182.63834 
L 346.067216 -270.478487 
L 346.067216 -273.765645 
L 346.067216 -273.765645 
L 200.608125 -185.560257 
L 55.149034 -108.494681 
z
"/>
    </defs>
    <g clip-path="url(#p5653f23e84)">
     <use xlink:href="#m761bf1266c" x="0" y="359.607719" style="fill: #b36f85; fill-opacity: 0.12"/>
    </g>
   </g>
   <g id="PolyCollection_5">
    <defs>
     <path id="m49b01417cb" d="M 55.149034 -80.371224 
L 55.149034 -80.371224 
L 200.608125 -79.823365 
L 346.067216 -80.371224 
L 346.067216 -80.371224 
L 346.067216 -80.371224 
L 200.608125 -80.371224 
L 55.149034 -80.371224 
z
"/>
    </defs>
    <g clip-path="url(#p5653f23e84)">
     <use xlink:href="#m49b01417cb" x="0" y="359.607719" style="fill: #263842; fill-opacity: 0.12"/>
    </g>
   </g>
   <g id="matplotlib.axis_1">
    <g id="xtick_1">
     <g id="line2d_1">
      <defs>
       <path id="m8928100c82" d="M 0 0 
L 0 3.5 
" style="stroke: #000000; stroke-width: 0.8"/>
      </defs>
      <g>
       <use xlink:href="#m8928100c82" x="55.149034" y="296.768" style="stroke: #000000; stroke-width: 0.8"/>
      </g>
     </g>
     <g id="text_1">
      <!-- 4 -->
      <g transform="translate(51.967784 311.366437) scale(0.1 -0.1)">
       <defs>
        <path id="DejaVuSans-34" d="M 2419 4116 
L 825 1625 
L 2419 1625 
L 2419 4116 
z
M 2253 4666 
L 3047 4666 
L 3047 1625 
L 3713 1625 
L 3713 1100 
L 3047 1100 
L 3047 0 
L 2419 0 
L 2419 1100 
L 313 1100 
L 313 1709 
L 2253 4666 
z
" transform="scale(0.015625)"/>
       </defs>
       <use xlink:href="#DejaVuSans-34"/>
      </g>
     </g>
    </g>
    <g id="xtick_2">
     <g id="line2d_2">
      <g>
       <use xlink:href="#m8928100c82" x="200.608125" y="296.768" style="stroke: #000000; stroke-width: 0.8"/>
      </g>
     </g>
     <g id="text_2">
      <!-- 8 -->
      <g transform="translate(197.426875 311.366437) scale(0.1 -0.1)">
       <defs>
        <path id="DejaVuSans-38" d="M 2034 2216 
Q 1584 2216 1326 1975 
Q 1069 1734 1069 1313 
Q 1069 891 1326 650 
Q 1584 409 2034 409 
Q 2484 409 2743 651 
Q 3003 894 3003 1313 
Q 3003 1734 2745 1975 
Q 2488 2216 2034 2216 
z
M 1403 2484 
Q 997 2584 770 2862 
Q 544 3141 544 3541 
Q 544 4100 942 4425 
Q 1341 4750 2034 4750 
Q 2731 4750 3128 4425 
Q 3525 4100 3525 3541 
Q 3525 3141 3298 2862 
Q 3072 2584 2669 2484 
Q 3125 2378 3379 2068 
Q 3634 1759 3634 1313 
Q 3634 634 3220 271 
Q 2806 -91 2034 -91 
Q 1263 -91 848 271 
Q 434 634 434 1313 
Q 434 1759 690 2068 
Q 947 2378 1403 2484 
z
M 1172 3481 
Q 1172 3119 1398 2916 
Q 1625 2713 2034 2713 
Q 2441 2713 2670 2916 
Q 2900 3119 2900 3481 
Q 2900 3844 2670 4047 
Q 2441 4250 2034 4250 
Q 1625 4250 1398 4047 
Q 1172 3844 1172 3481 
z
" transform="scale(0.015625)"/>
       </defs>
       <use xlink:href="#DejaVuSans-38"/>
      </g>
     </g>
    </g>
    <g id="xtick_3">
     <g id="line2d_3">
      <g>
       <use xlink:href="#m8928100c82" x="346.067216" y="296.768" style="stroke: #000000; stroke-width: 0.8"/>
      </g>
     </g>
     <g id="text_3">
      <!-- 12 -->
      <g transform="translate(339.704716 311.366437) scale(0.1 -0.1)">
       <defs>
        <path id="DejaVuSans-31" d="M 794 531 
L 1825 531 
L 1825 4091 
L 703 3866 
L 703 4441 
L 1819 4666 
L 2450 4666 
L 2450 531 
L 3481 531 
L 3481 0 
L 794 0 
L 794 531 
z
" transform="scale(0.015625)"/>
        <path id="DejaVuSans-32" d="M 1228 531 
L 3431 531 
L 3431 0 
L 469 0 
L 469 531 
Q 828 903 1448 1529 
Q 2069 2156 2228 2338 
Q 2531 2678 2651 2914 
Q 2772 3150 2772 3378 
Q 2772 3750 2511 3984 
Q 2250 4219 1831 4219 
Q 1534 4219 1204 4116 
Q 875 4013 500 3803 
L 500 4441 
Q 881 4594 1212 4672 
Q 1544 4750 1819 4750 
Q 2544 4750 2975 4387 
Q 3406 4025 3406 3419 
Q 3406 3131 3298 2873 
Q 3191 2616 2906 2266 
Q 2828 2175 2409 1742 
Q 1991 1309 1228 531 
z
" transform="scale(0.015625)"/>
       </defs>
       <use xlink:href="#DejaVuSans-31"/>
       <use xlink:href="#DejaVuSans-32" x="63.623047"/>
      </g>
     </g>
    </g>
    <g id="text_4">
     <!-- Progress events per branch k -->
     <g transform="translate(127.490937 325.044562) scale(0.1 -0.1)">
      <defs>
       <path id="DejaVuSans-50" d="M 1259 4147 
L 1259 2394 
L 2053 2394 
Q 2494 2394 2734 2622 
Q 2975 2850 2975 3272 
Q 2975 3691 2734 3919 
Q 2494 4147 2053 4147 
L 1259 4147 
z
M 628 4666 
L 2053 4666 
Q 2838 4666 3239 4311 
Q 3641 3956 3641 3272 
Q 3641 2581 3239 2228 
Q 2838 1875 2053 1875 
L 1259 1875 
L 1259 0 
L 628 0 
L 628 4666 
z
" transform="scale(0.015625)"/>
       <path id="DejaVuSans-72" d="M 2631 2963 
Q 2534 3019 2420 3045 
Q 2306 3072 2169 3072 
Q 1681 3072 1420 2755 
Q 1159 2438 1159 1844 
L 1159 0 
L 581 0 
L 581 3500 
L 1159 3500 
L 1159 2956 
Q 1341 3275 1631 3429 
Q 1922 3584 2338 3584 
Q 2397 3584 2469 3576 
Q 2541 3569 2628 3553 
L 2631 2963 
z
" transform="scale(0.015625)"/>
       <path id="DejaVuSans-6f" d="M 1959 3097 
Q 1497 3097 1228 2736 
Q 959 2375 959 1747 
Q 959 1119 1226 758 
Q 1494 397 1959 397 
Q 2419 397 2687 759 
Q 2956 1122 2956 1747 
Q 2956 2369 2687 2733 
Q 2419 3097 1959 3097 
z
M 1959 3584 
Q 2709 3584 3137 3096 
Q 3566 2609 3566 1747 
Q 3566 888 3137 398 
Q 2709 -91 1959 -91 
Q 1206 -91 779 398 
Q 353 888 353 1747 
Q 353 2609 779 3096 
Q 1206 3584 1959 3584 
z
" transform="scale(0.015625)"/>
       <path id="DejaVuSans-67" d="M 2906 1791 
Q 2906 2416 2648 2759 
Q 2391 3103 1925 3103 
Q 1463 3103 1205 2759 
Q 947 2416 947 1791 
Q 947 1169 1205 825 
Q 1463 481 1925 481 
Q 2391 481 2648 825 
Q 2906 1169 2906 1791 
z
M 3481 434 
Q 3481 -459 3084 -895 
Q 2688 -1331 1869 -1331 
Q 1566 -1331 1297 -1286 
Q 1028 -1241 775 -1147 
L 775 -588 
Q 1028 -725 1275 -790 
Q 1522 -856 1778 -856 
Q 2344 -856 2625 -561 
Q 2906 -266 2906 331 
L 2906 616 
Q 2728 306 2450 153 
Q 2172 0 1784 0 
Q 1141 0 747 490 
Q 353 981 353 1791 
Q 353 2603 747 3093 
Q 1141 3584 1784 3584 
Q 2172 3584 2450 3431 
Q 2728 3278 2906 2969 
L 2906 3500 
L 3481 3500 
L 3481 434 
z
" transform="scale(0.015625)"/>
       <path id="DejaVuSans-65" d="M 3597 1894 
L 3597 1613 
L 953 1613 
Q 991 1019 1311 708 
Q 1631 397 2203 397 
Q 2534 397 2845 478 
Q 3156 559 3463 722 
L 3463 178 
Q 3153 47 2828 -22 
Q 2503 -91 2169 -91 
Q 1331 -91 842 396 
Q 353 884 353 1716 
Q 353 2575 817 3079 
Q 1281 3584 2069 3584 
Q 2775 3584 3186 3129 
Q 3597 2675 3597 1894 
z
M 3022 2063 
Q 3016 2534 2758 2815 
Q 2500 3097 2075 3097 
Q 1594 3097 1305 2825 
Q 1016 2553 972 2059 
L 3022 2063 
z
" transform="scale(0.015625)"/>
       <path id="DejaVuSans-73" d="M 2834 3397 
L 2834 2853 
Q 2591 2978 2328 3040 
Q 2066 3103 1784 3103 
Q 1356 3103 1142 2972 
Q 928 2841 928 2578 
Q 928 2378 1081 2264 
Q 1234 2150 1697 2047 
L 1894 2003 
Q 2506 1872 2764 1633 
Q 3022 1394 3022 966 
Q 3022 478 2636 193 
Q 2250 -91 1575 -91 
Q 1294 -91 989 -36 
Q 684 19 347 128 
L 347 722 
Q 666 556 975 473 
Q 1284 391 1588 391 
Q 1994 391 2212 530 
Q 2431 669 2431 922 
Q 2431 1156 2273 1281 
Q 2116 1406 1581 1522 
L 1381 1569 
Q 847 1681 609 1914 
Q 372 2147 372 2553 
Q 372 3047 722 3315 
Q 1072 3584 1716 3584 
Q 2034 3584 2315 3537 
Q 2597 3491 2834 3397 
z
" transform="scale(0.015625)"/>
       <path id="DejaVuSans-20" transform="scale(0.015625)"/>
       <path id="DejaVuSans-76" d="M 191 3500 
L 800 3500 
L 1894 563 
L 2988 3500 
L 3597 3500 
L 2284 0 
L 1503 0 
L 191 3500 
z
" transform="scale(0.015625)"/>
       <path id="DejaVuSans-6e" d="M 3513 2113 
L 3513 0 
L 2938 0 
L 2938 2094 
Q 2938 2591 2744 2837 
Q 2550 3084 2163 3084 
Q 1697 3084 1428 2787 
Q 1159 2491 1159 1978 
L 1159 0 
L 581 0 
L 581 3500 
L 1159 3500 
L 1159 2956 
Q 1366 3272 1645 3428 
Q 1925 3584 2291 3584 
Q 2894 3584 3203 3211 
Q 3513 2838 3513 2113 
z
" transform="scale(0.015625)"/>
       <path id="DejaVuSans-74" d="M 1172 4494 
L 1172 3500 
L 2356 3500 
L 2356 3053 
L 1172 3053 
L 1172 1153 
Q 1172 725 1289 603 
Q 1406 481 1766 481 
L 2356 481 
L 2356 0 
L 1766 0 
Q 1100 0 847 248 
Q 594 497 594 1153 
L 594 3053 
L 172 3053 
L 172 3500 
L 594 3500 
L 594 4494 
L 1172 4494 
z
" transform="scale(0.015625)"/>
       <path id="DejaVuSans-70" d="M 1159 525 
L 1159 -1331 
L 581 -1331 
L 581 3500 
L 1159 3500 
L 1159 2969 
Q 1341 3281 1617 3432 
Q 1894 3584 2278 3584 
Q 2916 3584 3314 3078 
Q 3713 2572 3713 1747 
Q 3713 922 3314 415 
Q 2916 -91 2278 -91 
Q 1894 -91 1617 61 
Q 1341 213 1159 525 
z
M 3116 1747 
Q 3116 2381 2855 2742 
Q 2594 3103 2138 3103 
Q 1681 3103 1420 2742 
Q 1159 2381 1159 1747 
Q 1159 1113 1420 752 
Q 1681 391 2138 391 
Q 2594 391 2855 752 
Q 3116 1113 3116 1747 
z
" transform="scale(0.015625)"/>
       <path id="DejaVuSans-62" d="M 3116 1747 
Q 3116 2381 2855 2742 
Q 2594 3103 2138 3103 
Q 1681 3103 1420 2742 
Q 1159 2381 1159 1747 
Q 1159 1113 1420 752 
Q 1681 391 2138 391 
Q 2594 391 2855 752 
Q 3116 1113 3116 1747 
z
M 1159 2969 
Q 1341 3281 1617 3432 
Q 1894 3584 2278 3584 
Q 2916 3584 3314 3078 
Q 3713 2572 3713 1747 
Q 3713 922 3314 415 
Q 2916 -91 2278 -91 
Q 1894 -91 1617 61 
Q 1341 213 1159 525 
L 1159 0 
L 581 0 
L 581 4863 
L 1159 4863 
L 1159 2969 
z
" transform="scale(0.015625)"/>
       <path id="DejaVuSans-61" d="M 2194 1759 
Q 1497 1759 1228 1600 
Q 959 1441 959 1056 
Q 959 750 1161 570 
Q 1363 391 1709 391 
Q 2188 391 2477 730 
Q 2766 1069 2766 1631 
L 2766 1759 
L 2194 1759 
z
M 3341 1997 
L 3341 0 
L 2766 0 
L 2766 531 
Q 2569 213 2275 61 
Q 1981 -91 1556 -91 
Q 1019 -91 701 211 
Q 384 513 384 1019 
Q 384 1609 779 1909 
Q 1175 2209 1959 2209 
L 2766 2209 
L 2766 2266 
Q 2766 2663 2505 2880 
Q 2244 3097 1772 3097 
Q 1472 3097 1187 3025 
Q 903 2953 641 2809 
L 641 3341 
Q 956 3463 1253 3523 
Q 1550 3584 1831 3584 
Q 2591 3584 2966 3190 
Q 3341 2797 3341 1997 
z
" transform="scale(0.015625)"/>
       <path id="DejaVuSans-63" d="M 3122 3366 
L 3122 2828 
Q 2878 2963 2633 3030 
Q 2388 3097 2138 3097 
Q 1578 3097 1268 2742 
Q 959 2388 959 1747 
Q 959 1106 1268 751 
Q 1578 397 2138 397 
Q 2388 397 2633 464 
Q 2878 531 3122 666 
L 3122 134 
Q 2881 22 2623 -34 
Q 2366 -91 2075 -91 
Q 1284 -91 818 406 
Q 353 903 353 1747 
Q 353 2603 823 3093 
Q 1294 3584 2113 3584 
Q 2378 3584 2631 3529 
Q 2884 3475 3122 3366 
z
" transform="scale(0.015625)"/>
       <path id="DejaVuSans-68" d="M 3513 2113 
L 3513 0 
L 2938 0 
L 2938 2094 
Q 2938 2591 2744 2837 
Q 2550 3084 2163 3084 
Q 1697 3084 1428 2787 
Q 1159 2491 1159 1978 
L 1159 0 
L 581 0 
L 581 4863 
L 1159 4863 
L 1159 2956 
Q 1366 3272 1645 3428 
Q 1925 3584 2291 3584 
Q 2894 3584 3203 3211 
Q 3513 2838 3513 2113 
z
" transform="scale(0.015625)"/>
       <path id="DejaVuSans-6b" d="M 581 4863 
L 1159 4863 
L 1159 1991 
L 2875 3500 
L 3609 3500 
L 1753 1863 
L 3688 0 
L 2938 0 
L 1159 1709 
L 1159 0 
L 581 0 
L 581 4863 
z
" transform="scale(0.015625)"/>
      </defs>
      <use xlink:href="#DejaVuSans-50"/>
      <use xlink:href="#DejaVuSans-72" x="58.552734"/>
      <use xlink:href="#DejaVuSans-6f" x="97.416016"/>
      <use xlink:href="#DejaVuSans-67" x="158.597656"/>
      <use xlink:href="#DejaVuSans-72" x="222.074219"/>
      <use xlink:href="#DejaVuSans-65" x="260.9375"/>
      <use xlink:href="#DejaVuSans-73" x="322.460938"/>
      <use xlink:href="#DejaVuSans-73" x="374.560547"/>
      <use xlink:href="#DejaVuSans-20" x="426.660156"/>
      <use xlink:href="#DejaVuSans-65" x="458.447266"/>
      <use xlink:href="#DejaVuSans-76" x="519.970703"/>
      <use xlink:href="#DejaVuSans-65" x="579.150391"/>
      <use xlink:href="#DejaVuSans-6e" x="640.673828"/>
      <use xlink:href="#DejaVuSans-74" x="704.052734"/>
      <use xlink:href="#DejaVuSans-73" x="743.261719"/>
      <use xlink:href="#DejaVuSans-20" x="795.361328"/>
      <use xlink:href="#DejaVuSans-70" x="827.148438"/>
      <use xlink:href="#DejaVuSans-65" x="890.625"/>
      <use xlink:href="#DejaVuSans-72" x="952.148438"/>
      <use xlink:href="#DejaVuSans-20" x="993.261719"/>
      <use xlink:href="#DejaVuSans-62" x="1025.048828"/>
      <use xlink:href="#DejaVuSans-72" x="1088.525391"/>
      <use xlink:href="#DejaVuSans-61" x="1129.638672"/>
      <use xlink:href="#DejaVuSans-6e" x="1190.917969"/>
      <use xlink:href="#DejaVuSans-63" x="1254.296875"/>
      <use xlink:href="#DejaVuSans-68" x="1309.277344"/>
      <use xlink:href="#DejaVuSans-20" x="1372.65625"/>
      <use xlink:href="#DejaVuSans-6b" x="1404.443359"/>
     </g>
    </g>
   </g>
   <g id="matplotlib.axis_2">
    <g id="ytick_1">
     <g id="line2d_4">
      <path d="M 40.603125 296.768 
L 360.613125 296.768 
" clip-path="url(#p5653f23e84)" style="fill: none; stroke: #b0b0b0; stroke-opacity: 0.15; stroke-width: 0.8; stroke-linecap: square"/>
     </g>
     <g id="line2d_5">
      <defs>
       <path id="m7ddda96d6c" d="M 0 0 
L -3.5 0 
" style="stroke: #000000; stroke-width: 0.8"/>
      </defs>
      <g>
       <use xlink:href="#m7ddda96d6c" x="40.603125" y="296.768" style="stroke: #000000; stroke-width: 0.8"/>
      </g>
     </g>
     <g id="text_5">
      <!-- 0 -->
      <g transform="translate(27.240625 300.567219) scale(0.1 -0.1)">
       <defs>
        <path id="DejaVuSans-30" d="M 2034 4250 
Q 1547 4250 1301 3770 
Q 1056 3291 1056 2328 
Q 1056 1369 1301 889 
Q 1547 409 2034 409 
Q 2525 409 2770 889 
Q 3016 1369 3016 2328 
Q 3016 3291 2770 3770 
Q 2525 4250 2034 4250 
z
M 2034 4750 
Q 2819 4750 3233 4129 
Q 3647 3509 3647 2328 
Q 3647 1150 3233 529 
Q 2819 -91 2034 -91 
Q 1250 -91 836 529 
Q 422 1150 422 2328 
Q 422 3509 836 4129 
Q 1250 4750 2034 4750 
z
" transform="scale(0.015625)"/>
       </defs>
       <use xlink:href="#DejaVuSans-30"/>
      </g>
     </g>
    </g>
    <g id="ytick_2">
     <g id="line2d_6">
      <path d="M 40.603125 267.548824 
L 360.613125 267.548824 
" clip-path="url(#p5653f23e84)" style="fill: none; stroke: #b0b0b0; stroke-opacity: 0.15; stroke-width: 0.8; stroke-linecap: square"/>
     </g>
     <g id="line2d_7">
      <g>
       <use xlink:href="#m7ddda96d6c" x="40.603125" y="267.548824" style="stroke: #000000; stroke-width: 0.8"/>
      </g>
     </g>
     <g id="text_6">
      <!-- 5 -->
      <g transform="translate(27.240625 271.348043) scale(0.1 -0.1)">
       <defs>
        <path id="DejaVuSans-35" d="M 691 4666 
L 3169 4666 
L 3169 4134 
L 1269 4134 
L 1269 2991 
Q 1406 3038 1543 3061 
Q 1681 3084 1819 3084 
Q 2600 3084 3056 2656 
Q 3513 2228 3513 1497 
Q 3513 744 3044 326 
Q 2575 -91 1722 -91 
Q 1428 -91 1123 -41 
Q 819 9 494 109 
L 494 744 
Q 775 591 1075 516 
Q 1375 441 1709 441 
Q 2250 441 2565 725 
Q 2881 1009 2881 1497 
Q 2881 1984 2565 2268 
Q 2250 2553 1709 2553 
Q 1456 2553 1204 2497 
Q 953 2441 691 2322 
L 691 4666 
z
" transform="scale(0.015625)"/>
       </defs>
       <use xlink:href="#DejaVuSans-35"/>
      </g>
     </g>
    </g>
    <g id="ytick_3">
     <g id="line2d_8">
      <path d="M 40.603125 238.329648 
L 360.613125 238.329648 
" clip-path="url(#p5653f23e84)" style="fill: none; stroke: #b0b0b0; stroke-opacity: 0.15; stroke-width: 0.8; stroke-linecap: square"/>
     </g>
     <g id="line2d_9">
      <g>
       <use xlink:href="#m7ddda96d6c" x="40.603125" y="238.329648" style="stroke: #000000; stroke-width: 0.8"/>
      </g>
     </g>
     <g id="text_7">
      <!-- 10 -->
      <g transform="translate(20.878125 242.128867) scale(0.1 -0.1)">
       <use xlink:href="#DejaVuSans-31"/>
       <use xlink:href="#DejaVuSans-30" x="63.623047"/>
      </g>
     </g>
    </g>
    <g id="ytick_4">
     <g id="line2d_10">
      <path d="M 40.603125 209.110472 
L 360.613125 209.110472 
" clip-path="url(#p5653f23e84)" style="fill: none; stroke: #b0b0b0; stroke-opacity: 0.15; stroke-width: 0.8; stroke-linecap: square"/>
     </g>
     <g id="line2d_11">
      <g>
       <use xlink:href="#m7ddda96d6c" x="40.603125" y="209.110472" style="stroke: #000000; stroke-width: 0.8"/>
      </g>
     </g>
     <g id="text_8">
      <!-- 15 -->
      <g transform="translate(20.878125 212.909691) scale(0.1 -0.1)">
       <use xlink:href="#DejaVuSans-31"/>
       <use xlink:href="#DejaVuSans-35" x="63.623047"/>
      </g>
     </g>
    </g>
    <g id="ytick_5">
     <g id="line2d_12">
      <path d="M 40.603125 179.891296 
L 360.613125 179.891296 
" clip-path="url(#p5653f23e84)" style="fill: none; stroke: #b0b0b0; stroke-opacity: 0.15; stroke-width: 0.8; stroke-linecap: square"/>
     </g>
     <g id="line2d_13">
      <g>
       <use xlink:href="#m7ddda96d6c" x="40.603125" y="179.891296" style="stroke: #000000; stroke-width: 0.8"/>
      </g>
     </g>
     <g id="text_9">
      <!-- 20 -->
      <g transform="translate(20.878125 183.690515) scale(0.1 -0.1)">
       <use xlink:href="#DejaVuSans-32"/>
       <use xlink:href="#DejaVuSans-30" x="63.623047"/>
      </g>
     </g>
    </g>
    <g id="ytick_6">
     <g id="line2d_14">
      <path d="M 40.603125 150.672121 
L 360.613125 150.672121 
" clip-path="url(#p5653f23e84)" style="fill: none; stroke: #b0b0b0; stroke-opacity: 0.15; stroke-width: 0.8; stroke-linecap: square"/>
     </g>
     <g id="line2d_15">
      <g>
       <use xlink:href="#m7ddda96d6c" x="40.603125" y="150.672121" style="stroke: #000000; stroke-width: 0.8"/>
      </g>
     </g>
     <g id="text_10">
      <!-- 25 -->
      <g transform="translate(20.878125 154.471339) scale(0.1 -0.1)">
       <use xlink:href="#DejaVuSans-32"/>
       <use xlink:href="#DejaVuSans-35" x="63.623047"/>
      </g>
     </g>
    </g>
    <g id="ytick_7">
     <g id="line2d_16">
      <path d="M 40.603125 121.452945 
L 360.613125 121.452945 
" clip-path="url(#p5653f23e84)" style="fill: none; stroke: #b0b0b0; stroke-opacity: 0.15; stroke-width: 0.8; stroke-linecap: square"/>
     </g>
     <g id="line2d_17">
      <g>
       <use xlink:href="#m7ddda96d6c" x="40.603125" y="121.452945" style="stroke: #000000; stroke-width: 0.8"/>
      </g>
     </g>
     <g id="text_11">
      <!-- 30 -->
      <g transform="translate(20.878125 125.252163) scale(0.1 -0.1)">
       <defs>
        <path id="DejaVuSans-33" d="M 2597 2516 
Q 3050 2419 3304 2112 
Q 3559 1806 3559 1356 
Q 3559 666 3084 287 
Q 2609 -91 1734 -91 
Q 1441 -91 1130 -33 
Q 819 25 488 141 
L 488 750 
Q 750 597 1062 519 
Q 1375 441 1716 441 
Q 2309 441 2620 675 
Q 2931 909 2931 1356 
Q 2931 1769 2642 2001 
Q 2353 2234 1838 2234 
L 1294 2234 
L 1294 2753 
L 1863 2753 
Q 2328 2753 2575 2939 
Q 2822 3125 2822 3475 
Q 2822 3834 2567 4026 
Q 2313 4219 1838 4219 
Q 1578 4219 1281 4162 
Q 984 4106 628 3988 
L 628 4550 
Q 988 4650 1302 4700 
Q 1616 4750 1894 4750 
Q 2613 4750 3031 4423 
Q 3450 4097 3450 3541 
Q 3450 3153 3228 2886 
Q 3006 2619 2597 2516 
z
" transform="scale(0.015625)"/>
       </defs>
       <use xlink:href="#DejaVuSans-33"/>
       <use xlink:href="#DejaVuSans-30" x="63.623047"/>
      </g>
     </g>
    </g>
    <g id="ytick_8">
     <g id="line2d_18">
      <path d="M 40.603125 92.233769 
L 360.613125 92.233769 
" clip-path="url(#p5653f23e84)" style="fill: none; stroke: #b0b0b0; stroke-opacity: 0.15; stroke-width: 0.8; stroke-linecap: square"/>
     </g>
     <g id="line2d_19">
      <g>
       <use xlink:href="#m7ddda96d6c" x="40.603125" y="92.233769" style="stroke: #000000; stroke-width: 0.8"/>
      </g>
     </g>
     <g id="text_12">
      <!-- 35 -->
      <g transform="translate(20.878125 96.032988) scale(0.1 -0.1)">
       <use xlink:href="#DejaVuSans-33"/>
       <use xlink:href="#DejaVuSans-35" x="63.623047"/>
      </g>
     </g>
    </g>
    <g id="text_13">
     <!-- Training steps to 90% success (thousands) -->
     <g transform="translate(14.798438 289.525031) rotate(-90) scale(0.1 -0.1)">
      <defs>
       <path id="DejaVuSans-54" d="M -19 4666 
L 3928 4666 
L 3928 4134 
L 2272 4134 
L 2272 0 
L 1638 0 
L 1638 4134 
L -19 4134 
L -19 4666 
z
" transform="scale(0.015625)"/>
       <path id="DejaVuSans-69" d="M 603 3500 
L 1178 3500 
L 1178 0 
L 603 0 
L 603 3500 
z
M 603 4863 
L 1178 4863 
L 1178 4134 
L 603 4134 
L 603 4863 
z
" transform="scale(0.015625)"/>
       <path id="DejaVuSans-39" d="M 703 97 
L 703 672 
Q 941 559 1184 500 
Q 1428 441 1663 441 
Q 2288 441 2617 861 
Q 2947 1281 2994 2138 
Q 2813 1869 2534 1725 
Q 2256 1581 1919 1581 
Q 1219 1581 811 2004 
Q 403 2428 403 3163 
Q 403 3881 828 4315 
Q 1253 4750 1959 4750 
Q 2769 4750 3195 4129 
Q 3622 3509 3622 2328 
Q 3622 1225 3098 567 
Q 2575 -91 1691 -91 
Q 1453 -91 1209 -44 
Q 966 3 703 97 
z
M 1959 2075 
Q 2384 2075 2632 2365 
Q 2881 2656 2881 3163 
Q 2881 3666 2632 3958 
Q 2384 4250 1959 4250 
Q 1534 4250 1286 3958 
Q 1038 3666 1038 3163 
Q 1038 2656 1286 2365 
Q 1534 2075 1959 2075 
z
" transform="scale(0.015625)"/>
       <path id="DejaVuSans-25" d="M 4653 2053 
Q 4381 2053 4226 1822 
Q 4072 1591 4072 1178 
Q 4072 772 4226 539 
Q 4381 306 4653 306 
Q 4919 306 5073 539 
Q 5228 772 5228 1178 
Q 5228 1588 5073 1820 
Q 4919 2053 4653 2053 
z
M 4653 2450 
Q 5147 2450 5437 2106 
Q 5728 1763 5728 1178 
Q 5728 594 5436 251 
Q 5144 -91 4653 -91 
Q 4153 -91 3862 251 
Q 3572 594 3572 1178 
Q 3572 1766 3864 2108 
Q 4156 2450 4653 2450 
z
M 1428 4353 
Q 1159 4353 1004 4120 
Q 850 3888 850 3481 
Q 850 3069 1003 2837 
Q 1156 2606 1428 2606 
Q 1700 2606 1854 2837 
Q 2009 3069 2009 3481 
Q 2009 3884 1853 4118 
Q 1697 4353 1428 4353 
z
M 4250 4750 
L 4750 4750 
L 1831 -91 
L 1331 -91 
L 4250 4750 
z
M 1428 4750 
Q 1922 4750 2215 4408 
Q 2509 4066 2509 3481 
Q 2509 2891 2217 2550 
Q 1925 2209 1428 2209 
Q 931 2209 642 2551 
Q 353 2894 353 3481 
Q 353 4063 643 4406 
Q 934 4750 1428 4750 
z
" transform="scale(0.015625)"/>
       <path id="DejaVuSans-75" d="M 544 1381 
L 544 3500 
L 1119 3500 
L 1119 1403 
Q 1119 906 1312 657 
Q 1506 409 1894 409 
Q 2359 409 2629 706 
Q 2900 1003 2900 1516 
L 2900 3500 
L 3475 3500 
L 3475 0 
L 2900 0 
L 2900 538 
Q 2691 219 2414 64 
Q 2138 -91 1772 -91 
Q 1169 -91 856 284 
Q 544 659 544 1381 
z
M 1991 3584 
L 1991 3584 
z
" transform="scale(0.015625)"/>
       <path id="DejaVuSans-28" d="M 1984 4856 
Q 1566 4138 1362 3434 
Q 1159 2731 1159 2009 
Q 1159 1288 1364 580 
Q 1569 -128 1984 -844 
L 1484 -844 
Q 1016 -109 783 600 
Q 550 1309 550 2009 
Q 550 2706 781 3412 
Q 1013 4119 1484 4856 
L 1984 4856 
z
" transform="scale(0.015625)"/>
       <path id="DejaVuSans-64" d="M 2906 2969 
L 2906 4863 
L 3481 4863 
L 3481 0 
L 2906 0 
L 2906 525 
Q 2725 213 2448 61 
Q 2172 -91 1784 -91 
Q 1150 -91 751 415 
Q 353 922 353 1747 
Q 353 2572 751 3078 
Q 1150 3584 1784 3584 
Q 2172 3584 2448 3432 
Q 2725 3281 2906 2969 
z
M 947 1747 
Q 947 1113 1208 752 
Q 1469 391 1925 391 
Q 2381 391 2643 752 
Q 2906 1113 2906 1747 
Q 2906 2381 2643 2742 
Q 2381 3103 1925 3103 
Q 1469 3103 1208 2742 
Q 947 2381 947 1747 
z
" transform="scale(0.015625)"/>
       <path id="DejaVuSans-29" d="M 513 4856 
L 1013 4856 
Q 1481 4119 1714 3412 
Q 1947 2706 1947 2009 
Q 1947 1309 1714 600 
Q 1481 -109 1013 -844 
L 513 -844 
Q 928 -128 1133 580 
Q 1338 1288 1338 2009 
Q 1338 2731 1133 3434 
Q 928 4138 513 4856 
z
" transform="scale(0.015625)"/>
      </defs>
      <use xlink:href="#DejaVuSans-54"/>
      <use xlink:href="#DejaVuSans-72" x="46.333984"/>
      <use xlink:href="#DejaVuSans-61" x="87.447266"/>
      <use xlink:href="#DejaVuSans-69" x="148.726562"/>
      <use xlink:href="#DejaVuSans-6e" x="176.509766"/>
      <use xlink:href="#DejaVuSans-69" x="239.888672"/>
      <use xlink:href="#DejaVuSans-6e" x="267.671875"/>
      <use xlink:href="#DejaVuSans-67" x="331.050781"/>
      <use xlink:href="#DejaVuSans-20" x="394.527344"/>
      <use xlink:href="#DejaVuSans-73" x="426.314453"/>
      <use xlink:href="#DejaVuSans-74" x="478.414062"/>
      <use xlink:href="#DejaVuSans-65" x="517.623047"/>
      <use xlink:href="#DejaVuSans-70" x="579.146484"/>
      <use xlink:href="#DejaVuSans-73" x="642.623047"/>
      <use xlink:href="#DejaVuSans-20" x="694.722656"/>
      <use xlink:href="#DejaVuSans-74" x="726.509766"/>
      <use xlink:href="#DejaVuSans-6f" x="765.71875"/>
      <use xlink:href="#DejaVuSans-20" x="826.900391"/>
      <use xlink:href="#DejaVuSans-39" x="858.6875"/>
      <use xlink:href="#DejaVuSans-30" x="922.310547"/>
      <use xlink:href="#DejaVuSans-25" x="985.933594"/>
      <use xlink:href="#DejaVuSans-20" x="1080.953125"/>
      <use xlink:href="#DejaVuSans-73" x="1112.740234"/>
      <use xlink:href="#DejaVuSans-75" x="1164.839844"/>
      <use xlink:href="#DejaVuSans-63" x="1228.21875"/>
      <use xlink:href="#DejaVuSans-63" x="1283.199219"/>
      <use xlink:href="#DejaVuSans-65" x="1338.179688"/>
      <use xlink:href="#DejaVuSans-73" x="1399.703125"/>
      <use xlink:href="#DejaVuSans-73" x="1451.802734"/>
      <use xlink:href="#DejaVuSans-20" x="1503.902344"/>
      <use xlink:href="#DejaVuSans-28" x="1535.689453"/>
      <use xlink:href="#DejaVuSans-74" x="1574.703125"/>
      <use xlink:href="#DejaVuSans-68" x="1613.912109"/>
      <use xlink:href="#DejaVuSans-6f" x="1677.291016"/>
      <use xlink:href="#DejaVuSans-75" x="1738.472656"/>
      <use xlink:href="#DejaVuSans-73" x="1801.851562"/>
      <use xlink:href="#DejaVuSans-61" x="1853.951172"/>
      <use xlink:href="#DejaVuSans-6e" x="1915.230469"/>
      <use xlink:href="#DejaVuSans-64" x="1978.609375"/>
      <use xlink:href="#DejaVuSans-73" x="2042.085938"/>
      <use xlink:href="#DejaVuSans-29" x="2094.185547"/>
     </g>
    </g>
   </g>
   <g id="line2d_20">
    <path d="M 55.149034 273.940519 
L 200.608125 229.198656 
L 346.067216 179.526057 
" clip-path="url(#p5653f23e84)" style="fill: none; stroke: #657888; stroke-width: 1.8; stroke-linecap: square"/>
    <defs>
     <path id="m5941795392" d="M 0 2 
C 0.530406 2 1.03916 1.789267 1.414214 1.414214 
C 1.789267 1.03916 2 0.530406 2 0 
C 2 -0.530406 1.789267 -1.03916 1.414214 -1.414214 
C 1.03916 -1.789267 0.530406 -2 0 -2 
C -0.530406 -2 -1.03916 -1.789267 -1.414214 -1.414214 
C -1.789267 -1.03916 -2 -0.530406 -2 0 
C -2 0.530406 -1.789267 1.03916 -1.414214 1.414214 
C -1.03916 1.789267 -0.530406 2 0 2 
z
" style="stroke: #657888"/>
    </defs>
    <g clip-path="url(#p5653f23e84)">
     <use xlink:href="#m5941795392" x="55.149034" y="273.940519" style="fill: #657888; stroke: #657888"/>
     <use xlink:href="#m5941795392" x="200.608125" y="229.198656" style="fill: #657888; stroke: #657888"/>
     <use xlink:href="#m5941795392" x="346.067216" y="179.526057" style="fill: #657888; stroke: #657888"/>
    </g>
   </g>
   <g id="line2d_21">
    <path d="M 55.149034 278.140775 
L 200.608125 255.495914 
L 346.067216 228.102937 
" clip-path="url(#p5653f23e84)" style="fill: none; stroke: #be8c42; stroke-width: 1.8; stroke-linecap: square"/>
    <defs>
     <path id="ma925fd6f6b" d="M 0 2 
C 0.530406 2 1.03916 1.789267 1.414214 1.414214 
C 1.789267 1.03916 2 0.530406 2 0 
C 2 -0.530406 1.789267 -1.03916 1.414214 -1.414214 
C 1.03916 -1.789267 0.530406 -2 0 -2 
C -0.530406 -2 -1.03916 -1.789267 -1.414214 -1.414214 
C -1.789267 -1.03916 -2 -0.530406 -2 0 
C -2 0.530406 -1.789267 1.03916 -1.414214 1.414214 
C -1.03916 1.789267 -0.530406 2 0 2 
z
" style="stroke: #be8c42"/>
    </defs>
    <g clip-path="url(#p5653f23e84)">
     <use xlink:href="#ma925fd6f6b" x="55.149034" y="278.140775" style="fill: #be8c42; stroke: #be8c42"/>
     <use xlink:href="#ma925fd6f6b" x="200.608125" y="255.495914" style="fill: #be8c42; stroke: #be8c42"/>
     <use xlink:href="#ma925fd6f6b" x="346.067216" y="228.102937" style="fill: #be8c42; stroke: #be8c42"/>
    </g>
   </g>
   <g id="line2d_22">
    <path d="M 55.149034 271.9317 
L 200.608125 253.669716 
L 346.067216 236.32083 
" clip-path="url(#p5653f23e84)" style="fill: none; stroke: #008c82; stroke-width: 1.8; stroke-linecap: square"/>
    <defs>
     <path id="m30b6b7d08d" d="M 0 2 
C 0.530406 2 1.03916 1.789267 1.414214 1.414214 
C 1.789267 1.03916 2 0.530406 2 0 
C 2 -0.530406 1.789267 -1.03916 1.414214 -1.414214 
C 1.03916 -1.789267 0.530406 -2 0 -2 
C -0.530406 -2 -1.03916 -1.789267 -1.414214 -1.414214 
C -1.789267 -1.03916 -2 -0.530406 -2 0 
C -2 0.530406 -1.789267 1.03916 -1.414214 1.414214 
C -1.03916 1.789267 -0.530406 2 0 2 
z
" style="stroke: #008c82"/>
    </defs>
    <g clip-path="url(#p5653f23e84)">
     <use xlink:href="#m30b6b7d08d" x="55.149034" y="271.9317" style="fill: #008c82; stroke: #008c82"/>
     <use xlink:href="#m30b6b7d08d" x="200.608125" y="253.669716" style="fill: #008c82; stroke: #008c82"/>
     <use xlink:href="#m30b6b7d08d" x="346.067216" y="236.32083" style="fill: #008c82; stroke: #008c82"/>
    </g>
   </g>
   <g id="line2d_23">
    <path d="M 55.149034 252.391377 
L 200.608125 175.50842 
L 346.067216 87.485653 
" clip-path="url(#p5653f23e84)" style="fill: none; stroke: #b36f85; stroke-width: 1.8; stroke-linecap: square"/>
    <defs>
     <path id="m1e9f32fd7a" d="M 0 2 
C 0.530406 2 1.03916 1.789267 1.414214 1.414214 
C 1.789267 1.03916 2 0.530406 2 0 
C 2 -0.530406 1.789267 -1.03916 1.414214 -1.414214 
C 1.03916 -1.789267 0.530406 -2 0 -2 
C -0.530406 -2 -1.03916 -1.789267 -1.414214 -1.414214 
C -1.789267 -1.03916 -2 -0.530406 -2 0 
C -2 0.530406 -1.789267 1.03916 -1.414214 1.414214 
C -1.03916 1.789267 -0.530406 2 0 2 
z
" style="stroke: #b36f85"/>
    </defs>
    <g clip-path="url(#p5653f23e84)">
     <use xlink:href="#m1e9f32fd7a" x="55.149034" y="252.391377" style="fill: #b36f85; stroke: #b36f85"/>
     <use xlink:href="#m1e9f32fd7a" x="200.608125" y="175.50842" style="fill: #b36f85; stroke: #b36f85"/>
     <use xlink:href="#m1e9f32fd7a" x="346.067216" y="87.485653" style="fill: #b36f85; stroke: #b36f85"/>
    </g>
   </g>
   <g id="line2d_24">
    <path d="M 55.149034 279.236494 
L 200.608125 279.419114 
L 346.067216 279.236494 
" clip-path="url(#p5653f23e84)" style="fill: none; stroke-dasharray: 6.66,2.88; stroke-dashoffset: 0; stroke: #263842; stroke-width: 1.8"/>
    <defs>
     <path id="m8a7f732960" d="M 0 2 
C 0.530406 2 1.03916 1.789267 1.414214 1.414214 
C 1.789267 1.03916 2 0.530406 2 0 
C 2 -0.530406 1.789267 -1.03916 1.414214 -1.414214 
C 1.03916 -1.789267 0.530406 -2 0 -2 
C -0.530406 -2 -1.03916 -1.789267 -1.414214 -1.414214 
C -1.789267 -1.03916 -2 -0.530406 -2 0 
C -2 0.530406 -1.789267 1.03916 -1.414214 1.414214 
C -1.03916 1.789267 -0.530406 2 0 2 
z
" style="stroke: #263842"/>
    </defs>
    <g clip-path="url(#p5653f23e84)">
     <use xlink:href="#m8a7f732960" x="55.149034" y="279.236494" style="fill: #263842; stroke: #263842"/>
     <use xlink:href="#m8a7f732960" x="200.608125" y="279.419114" style="fill: #263842; stroke: #263842"/>
     <use xlink:href="#m8a7f732960" x="346.067216" y="279.236494" style="fill: #263842; stroke: #263842"/>
    </g>
   </g>
   <g id="patch_3">
    <path d="M 40.603125 296.768 
L 40.603125 68.968 
" style="fill: none; stroke: #000000; stroke-width: 0.8; stroke-linejoin: miter; stroke-linecap: square"/>
   </g>
   <g id="patch_4">
    <path d="M 40.603125 296.768 
L 360.613125 296.768 
" style="fill: none; stroke: #000000; stroke-width: 0.8; stroke-linejoin: miter; stroke-linecap: square"/>
   </g>
   <g id="text_14">
    <!-- One shared event | H = 16k -->
    <g transform="translate(115.395937 62.968) scale(0.11 -0.11)">
     <defs>
      <path id="DejaVuSans-Bold-4f" d="M 2719 3878 
Q 2169 3878 1866 3472 
Q 1563 3066 1563 2328 
Q 1563 1594 1866 1187 
Q 2169 781 2719 781 
Q 3272 781 3575 1187 
Q 3878 1594 3878 2328 
Q 3878 3066 3575 3472 
Q 3272 3878 2719 3878 
z
M 2719 4750 
Q 3844 4750 4481 4106 
Q 5119 3463 5119 2328 
Q 5119 1197 4481 553 
Q 3844 -91 2719 -91 
Q 1597 -91 958 553 
Q 319 1197 319 2328 
Q 319 3463 958 4106 
Q 1597 4750 2719 4750 
z
" transform="scale(0.015625)"/>
      <path id="DejaVuSans-Bold-6e" d="M 4056 2131 
L 4056 0 
L 2931 0 
L 2931 347 
L 2931 1631 
Q 2931 2084 2911 2256 
Q 2891 2428 2841 2509 
Q 2775 2619 2662 2680 
Q 2550 2741 2406 2741 
Q 2056 2741 1856 2470 
Q 1656 2200 1656 1722 
L 1656 0 
L 538 0 
L 538 3500 
L 1656 3500 
L 1656 2988 
Q 1909 3294 2193 3439 
Q 2478 3584 2822 3584 
Q 3428 3584 3742 3212 
Q 4056 2841 4056 2131 
z
" transform="scale(0.015625)"/>
      <path id="DejaVuSans-Bold-65" d="M 4031 1759 
L 4031 1441 
L 1416 1441 
Q 1456 1047 1700 850 
Q 1944 653 2381 653 
Q 2734 653 3104 758 
Q 3475 863 3866 1075 
L 3866 213 
Q 3469 63 3072 -14 
Q 2675 -91 2278 -91 
Q 1328 -91 801 392 
Q 275 875 275 1747 
Q 275 2603 792 3093 
Q 1309 3584 2216 3584 
Q 3041 3584 3536 3087 
Q 4031 2591 4031 1759 
z
M 2881 2131 
Q 2881 2450 2695 2645 
Q 2509 2841 2209 2841 
Q 1884 2841 1681 2658 
Q 1478 2475 1428 2131 
L 2881 2131 
z
" transform="scale(0.015625)"/>
      <path id="DejaVuSans-Bold-20" transform="scale(0.015625)"/>
      <path id="DejaVuSans-Bold-73" d="M 3272 3391 
L 3272 2541 
Q 2913 2691 2578 2766 
Q 2244 2841 1947 2841 
Q 1628 2841 1473 2761 
Q 1319 2681 1319 2516 
Q 1319 2381 1436 2309 
Q 1553 2238 1856 2203 
L 2053 2175 
Q 2913 2066 3209 1816 
Q 3506 1566 3506 1031 
Q 3506 472 3093 190 
Q 2681 -91 1863 -91 
Q 1516 -91 1145 -36 
Q 775 19 384 128 
L 384 978 
Q 719 816 1070 734 
Q 1422 653 1784 653 
Q 2113 653 2278 743 
Q 2444 834 2444 1013 
Q 2444 1163 2330 1236 
Q 2216 1309 1875 1350 
L 1678 1375 
Q 931 1469 631 1722 
Q 331 1975 331 2491 
Q 331 3047 712 3315 
Q 1094 3584 1881 3584 
Q 2191 3584 2531 3537 
Q 2872 3491 3272 3391 
z
" transform="scale(0.015625)"/>
      <path id="DejaVuSans-Bold-68" d="M 4056 2131 
L 4056 0 
L 2931 0 
L 2931 347 
L 2931 1625 
Q 2931 2084 2911 2256 
Q 2891 2428 2841 2509 
Q 2775 2619 2662 2680 
Q 2550 2741 2406 2741 
Q 2056 2741 1856 2470 
Q 1656 2200 1656 1722 
L 1656 0 
L 538 0 
L 538 4863 
L 1656 4863 
L 1656 2988 
Q 1909 3294 2193 3439 
Q 2478 3584 2822 3584 
Q 3428 3584 3742 3212 
Q 4056 2841 4056 2131 
z
" transform="scale(0.015625)"/>
      <path id="DejaVuSans-Bold-61" d="M 2106 1575 
Q 1756 1575 1579 1456 
Q 1403 1338 1403 1106 
Q 1403 894 1545 773 
Q 1688 653 1941 653 
Q 2256 653 2472 879 
Q 2688 1106 2688 1447 
L 2688 1575 
L 2106 1575 
z
M 3816 1997 
L 3816 0 
L 2688 0 
L 2688 519 
Q 2463 200 2181 54 
Q 1900 -91 1497 -91 
Q 953 -91 614 226 
Q 275 544 275 1050 
Q 275 1666 698 1953 
Q 1122 2241 2028 2241 
L 2688 2241 
L 2688 2328 
Q 2688 2594 2478 2717 
Q 2269 2841 1825 2841 
Q 1466 2841 1156 2769 
Q 847 2697 581 2553 
L 581 3406 
Q 941 3494 1303 3539 
Q 1666 3584 2028 3584 
Q 2975 3584 3395 3211 
Q 3816 2838 3816 1997 
z
" transform="scale(0.015625)"/>
      <path id="DejaVuSans-Bold-72" d="M 3138 2547 
Q 2991 2616 2845 2648 
Q 2700 2681 2553 2681 
Q 2122 2681 1889 2404 
Q 1656 2128 1656 1613 
L 1656 0 
L 538 0 
L 538 3500 
L 1656 3500 
L 1656 2925 
Q 1872 3269 2151 3426 
Q 2431 3584 2822 3584 
Q 2878 3584 2943 3579 
Q 3009 3575 3134 3559 
L 3138 2547 
z
" transform="scale(0.015625)"/>
      <path id="DejaVuSans-Bold-64" d="M 2919 2988 
L 2919 4863 
L 4044 4863 
L 4044 0 
L 2919 0 
L 2919 506 
Q 2688 197 2409 53 
Q 2131 -91 1766 -91 
Q 1119 -91 703 423 
Q 288 938 288 1747 
Q 288 2556 703 3070 
Q 1119 3584 1766 3584 
Q 2128 3584 2408 3439 
Q 2688 3294 2919 2988 
z
M 2181 722 
Q 2541 722 2730 984 
Q 2919 1247 2919 1747 
Q 2919 2247 2730 2509 
Q 2541 2772 2181 2772 
Q 1825 2772 1636 2509 
Q 1447 2247 1447 1747 
Q 1447 1247 1636 984 
Q 1825 722 2181 722 
z
" transform="scale(0.015625)"/>
      <path id="DejaVuSans-Bold-76" d="M 97 3500 
L 1216 3500 
L 2088 1081 
L 2956 3500 
L 4078 3500 
L 2700 0 
L 1472 0 
L 97 3500 
z
" transform="scale(0.015625)"/>
      <path id="DejaVuSans-Bold-74" d="M 1759 4494 
L 1759 3500 
L 2913 3500 
L 2913 2700 
L 1759 2700 
L 1759 1216 
Q 1759 972 1856 886 
Q 1953 800 2241 800 
L 2816 800 
L 2816 0 
L 1856 0 
Q 1194 0 917 276 
Q 641 553 641 1216 
L 641 2700 
L 84 2700 
L 84 3500 
L 641 3500 
L 641 4494 
L 1759 4494 
z
" transform="scale(0.015625)"/>
      <path id="DejaVuSans-Bold-7c" d="M 1522 4891 
L 1522 -1509 
L 813 -1509 
L 813 4891 
L 1522 4891 
z
" transform="scale(0.015625)"/>
      <path id="DejaVuSans-Bold-48" d="M 588 4666 
L 1791 4666 
L 1791 2888 
L 3566 2888 
L 3566 4666 
L 4769 4666 
L 4769 0 
L 3566 0 
L 3566 1978 
L 1791 1978 
L 1791 0 
L 588 0 
L 588 4666 
z
" transform="scale(0.015625)"/>
      <path id="DejaVuSans-Bold-3d" d="M 678 3084 
L 4684 3084 
L 4684 2350 
L 678 2350 
L 678 3084 
z
M 678 1663 
L 4684 1663 
L 4684 922 
L 678 922 
L 678 1663 
z
" transform="scale(0.015625)"/>
      <path id="DejaVuSans-Bold-31" d="M 750 831 
L 1813 831 
L 1813 3847 
L 722 3622 
L 722 4441 
L 1806 4666 
L 2950 4666 
L 2950 831 
L 4013 831 
L 4013 0 
L 750 0 
L 750 831 
z
" transform="scale(0.015625)"/>
      <path id="DejaVuSans-Bold-36" d="M 2316 2303 
Q 2000 2303 1842 2098 
Q 1684 1894 1684 1484 
Q 1684 1075 1842 870 
Q 2000 666 2316 666 
Q 2634 666 2792 870 
Q 2950 1075 2950 1484 
Q 2950 1894 2792 2098 
Q 2634 2303 2316 2303 
z
M 3803 4544 
L 3803 3681 
Q 3506 3822 3243 3889 
Q 2981 3956 2731 3956 
Q 2194 3956 1894 3657 
Q 1594 3359 1544 2772 
Q 1750 2925 1990 3001 
Q 2231 3078 2516 3078 
Q 3231 3078 3670 2659 
Q 4109 2241 4109 1563 
Q 4109 813 3618 361 
Q 3128 -91 2303 -91 
Q 1394 -91 895 523 
Q 397 1138 397 2266 
Q 397 3422 980 4083 
Q 1563 4744 2578 4744 
Q 2900 4744 3203 4694 
Q 3506 4644 3803 4544 
z
" transform="scale(0.015625)"/>
      <path id="DejaVuSans-Bold-6b" d="M 538 4863 
L 1656 4863 
L 1656 2216 
L 2944 3500 
L 4244 3500 
L 2534 1894 
L 4378 0 
L 3022 0 
L 1656 1459 
L 1656 0 
L 538 0 
L 538 4863 
z
" transform="scale(0.015625)"/>
     </defs>
     <use xlink:href="#DejaVuSans-Bold-4f"/>
     <use xlink:href="#DejaVuSans-Bold-6e" x="85.009766"/>
     <use xlink:href="#DejaVuSans-Bold-65" x="156.201172"/>
     <use xlink:href="#DejaVuSans-Bold-20" x="224.023438"/>
     <use xlink:href="#DejaVuSans-Bold-73" x="258.837891"/>
     <use xlink:href="#DejaVuSans-Bold-68" x="318.359375"/>
     <use xlink:href="#DejaVuSans-Bold-61" x="389.550781"/>
     <use xlink:href="#DejaVuSans-Bold-72" x="457.03125"/>
     <use xlink:href="#DejaVuSans-Bold-65" x="506.347656"/>
     <use xlink:href="#DejaVuSans-Bold-64" x="574.169922"/>
     <use xlink:href="#DejaVuSans-Bold-20" x="645.751953"/>
     <use xlink:href="#DejaVuSans-Bold-65" x="680.566406"/>
     <use xlink:href="#DejaVuSans-Bold-76" x="748.388672"/>
     <use xlink:href="#DejaVuSans-Bold-65" x="813.574219"/>
     <use xlink:href="#DejaVuSans-Bold-6e" x="881.396484"/>
     <use xlink:href="#DejaVuSans-Bold-74" x="952.587891"/>
     <use xlink:href="#DejaVuSans-Bold-20" x="1000.390625"/>
     <use xlink:href="#DejaVuSans-Bold-7c" x="1035.205078"/>
     <use xlink:href="#DejaVuSans-Bold-20" x="1071.728516"/>
     <use xlink:href="#DejaVuSans-Bold-48" x="1106.542969"/>
     <use xlink:href="#DejaVuSans-Bold-20" x="1190.234375"/>
     <use xlink:href="#DejaVuSans-Bold-3d" x="1225.048828"/>
     <use xlink:href="#DejaVuSans-Bold-20" x="1308.837891"/>
     <use xlink:href="#DejaVuSans-Bold-31" x="1343.652344"/>
     <use xlink:href="#DejaVuSans-Bold-36" x="1413.232422"/>
     <use xlink:href="#DejaVuSans-Bold-6b" x="1482.8125"/>
    </g>
   </g>
  </g>
  <g id="axes_2">
   <g id="patch_5">
    <path d="M 374.913125 296.768 
L 694.923125 296.768 
L 694.923125 68.968 
L 374.913125 68.968 
z
" style="fill: #ffffff"/>
   </g>
   <g id="PolyCollection_6">
    <defs>
     <path id="m375734949a" d="M 389.459034 -84.023621 
L 389.459034 -82.197423 
L 534.918125 -119.999732 
L 680.377216 -156.341082 
L 680.377216 -159.445619 
L 680.377216 -159.445619 
L 534.918125 -122.921649 
L 389.459034 -84.023621 
z
"/>
    </defs>
    <g clip-path="url(#pf8a11c68fe)">
     <use xlink:href="#m375734949a" x="0" y="359.607719" style="fill: #657888; fill-opacity: 0.12"/>
    </g>
   </g>
   <g id="PolyCollection_7">
    <defs>
     <path id="mb71bad8e6e" d="M 389.459034 -81.466943 
L 389.459034 -80.005985 
L 534.918125 -97.90273 
L 680.377216 -117.808293 
L 680.377216 -121.46069 
L 680.377216 -121.46069 
L 534.918125 -100.459408 
L 389.459034 -81.466943 
z
"/>
    </defs>
    <g clip-path="url(#pf8a11c68fe)">
     <use xlink:href="#mb71bad8e6e" x="0" y="359.607719" style="fill: #be8c42; fill-opacity: 0.12"/>
    </g>
   </g>
   <g id="PolyCollection_8">
    <defs>
     <path id="ma12d539463" d="M 389.459034 -81.832183 
L 389.459034 -80.553844 
L 534.918125 -92.606754 
L 680.377216 -104.294425 
L 680.377216 -107.581582 
L 680.377216 -107.581582 
L 534.918125 -95.528672 
L 389.459034 -81.832183 
z
"/>
    </defs>
    <g clip-path="url(#pf8a11c68fe)">
     <use xlink:href="#ma12d539463" x="0" y="359.607719" style="fill: #008c82; fill-opacity: 0.12"/>
    </g>
   </g>
   <g id="PolyCollection_9">
    <defs>
     <path id="m07da44a7c8" d="M 389.459034 -102.285606 
L 389.459034 -100.459408 
L 534.918125 -164.376355 
L 680.377216 -234.867617 
L 680.377216 -237.972154 
L 680.377216 -237.972154 
L 534.918125 -167.846132 
L 389.459034 -102.285606 
z
"/>
    </defs>
    <g clip-path="url(#pf8a11c68fe)">
     <use xlink:href="#m07da44a7c8" x="0" y="359.607719" style="fill: #b36f85; fill-opacity: 0.12"/>
    </g>
   </g>
   <g id="PolyCollection_10">
    <defs>
     <path id="mbcbe2f0d87" d="M 389.459034 -80.371224 
L 389.459034 -79.823365 
L 534.918125 -80.371224 
L 680.377216 -80.371224 
L 680.377216 -80.371224 
L 680.377216 -80.371224 
L 534.918125 -80.371224 
L 389.459034 -80.371224 
z
"/>
    </defs>
    <g clip-path="url(#pf8a11c68fe)">
     <use xlink:href="#mbcbe2f0d87" x="0" y="359.607719" style="fill: #263842; fill-opacity: 0.12"/>
    </g>
   </g>
   <g id="matplotlib.axis_3">
    <g id="xtick_4">
     <g id="line2d_25">
      <g>
       <use xlink:href="#m8928100c82" x="389.459034" y="296.768" style="stroke: #000000; stroke-width: 0.8"/>
      </g>
     </g>
     <g id="text_15">
      <!-- 4 -->
      <g transform="translate(386.277784 311.366437) scale(0.1 -0.1)">
       <use xlink:href="#DejaVuSans-34"/>
      </g>
     </g>
    </g>
    <g id="xtick_5">
     <g id="line2d_26">
      <g>
       <use xlink:href="#m8928100c82" x="534.918125" y="296.768" style="stroke: #000000; stroke-width: 0.8"/>
      </g>
     </g>
     <g id="text_16">
      <!-- 8 -->
      <g transform="translate(531.736875 311.366437) scale(0.1 -0.1)">
       <use xlink:href="#DejaVuSans-38"/>
      </g>
     </g>
    </g>
    <g id="xtick_6">
     <g id="line2d_27">
      <g>
       <use xlink:href="#m8928100c82" x="680.377216" y="296.768" style="stroke: #000000; stroke-width: 0.8"/>
      </g>
     </g>
     <g id="text_17">
      <!-- 12 -->
      <g transform="translate(674.014716 311.366437) scale(0.1 -0.1)">
       <use xlink:href="#DejaVuSans-31"/>
       <use xlink:href="#DejaVuSans-32" x="63.623047"/>
      </g>
     </g>
    </g>
    <g id="text_18">
     <!-- Progress events per branch k -->
     <g transform="translate(461.800938 325.044562) scale(0.1 -0.1)">
      <use xlink:href="#DejaVuSans-50"/>
      <use xlink:href="#DejaVuSans-72" x="58.552734"/>
      <use xlink:href="#DejaVuSans-6f" x="97.416016"/>
      <use xlink:href="#DejaVuSans-67" x="158.597656"/>
      <use xlink:href="#DejaVuSans-72" x="222.074219"/>
      <use xlink:href="#DejaVuSans-65" x="260.9375"/>
      <use xlink:href="#DejaVuSans-73" x="322.460938"/>
      <use xlink:href="#DejaVuSans-73" x="374.560547"/>
      <use xlink:href="#DejaVuSans-20" x="426.660156"/>
      <use xlink:href="#DejaVuSans-65" x="458.447266"/>
      <use xlink:href="#DejaVuSans-76" x="519.970703"/>
      <use xlink:href="#DejaVuSans-65" x="579.150391"/>
      <use xlink:href="#DejaVuSans-6e" x="640.673828"/>
      <use xlink:href="#DejaVuSans-74" x="704.052734"/>
      <use xlink:href="#DejaVuSans-73" x="743.261719"/>
      <use xlink:href="#DejaVuSans-20" x="795.361328"/>
      <use xlink:href="#DejaVuSans-70" x="827.148438"/>
      <use xlink:href="#DejaVuSans-65" x="890.625"/>
      <use xlink:href="#DejaVuSans-72" x="952.148438"/>
      <use xlink:href="#DejaVuSans-20" x="993.261719"/>
      <use xlink:href="#DejaVuSans-62" x="1025.048828"/>
      <use xlink:href="#DejaVuSans-72" x="1088.525391"/>
      <use xlink:href="#DejaVuSans-61" x="1129.638672"/>
      <use xlink:href="#DejaVuSans-6e" x="1190.917969"/>
      <use xlink:href="#DejaVuSans-63" x="1254.296875"/>
      <use xlink:href="#DejaVuSans-68" x="1309.277344"/>
      <use xlink:href="#DejaVuSans-20" x="1372.65625"/>
      <use xlink:href="#DejaVuSans-6b" x="1404.443359"/>
     </g>
    </g>
   </g>
   <g id="matplotlib.axis_4">
    <g id="ytick_9">
     <g id="line2d_28">
      <path d="M 374.913125 296.768 
L 694.923125 296.768 
" clip-path="url(#pf8a11c68fe)" style="fill: none; stroke: #b0b0b0; stroke-opacity: 0.15; stroke-width: 0.8; stroke-linecap: square"/>
     </g>
     <g id="line2d_29">
      <g>
       <use xlink:href="#m7ddda96d6c" x="374.913125" y="296.768" style="stroke: #000000; stroke-width: 0.8"/>
      </g>
     </g>
    </g>
    <g id="ytick_10">
     <g id="line2d_30">
      <path d="M 374.913125 267.548824 
L 694.923125 267.548824 
" clip-path="url(#pf8a11c68fe)" style="fill: none; stroke: #b0b0b0; stroke-opacity: 0.15; stroke-width: 0.8; stroke-linecap: square"/>
     </g>
     <g id="line2d_31">
      <g>
       <use xlink:href="#m7ddda96d6c" x="374.913125" y="267.548824" style="stroke: #000000; stroke-width: 0.8"/>
      </g>
     </g>
    </g>
    <g id="ytick_11">
     <g id="line2d_32">
      <path d="M 374.913125 238.329648 
L 694.923125 238.329648 
" clip-path="url(#pf8a11c68fe)" style="fill: none; stroke: #b0b0b0; stroke-opacity: 0.15; stroke-width: 0.8; stroke-linecap: square"/>
     </g>
     <g id="line2d_33">
      <g>
       <use xlink:href="#m7ddda96d6c" x="374.913125" y="238.329648" style="stroke: #000000; stroke-width: 0.8"/>
      </g>
     </g>
    </g>
    <g id="ytick_12">
     <g id="line2d_34">
      <path d="M 374.913125 209.110472 
L 694.923125 209.110472 
" clip-path="url(#pf8a11c68fe)" style="fill: none; stroke: #b0b0b0; stroke-opacity: 0.15; stroke-width: 0.8; stroke-linecap: square"/>
     </g>
     <g id="line2d_35">
      <g>
       <use xlink:href="#m7ddda96d6c" x="374.913125" y="209.110472" style="stroke: #000000; stroke-width: 0.8"/>
      </g>
     </g>
    </g>
    <g id="ytick_13">
     <g id="line2d_36">
      <path d="M 374.913125 179.891296 
L 694.923125 179.891296 
" clip-path="url(#pf8a11c68fe)" style="fill: none; stroke: #b0b0b0; stroke-opacity: 0.15; stroke-width: 0.8; stroke-linecap: square"/>
     </g>
     <g id="line2d_37">
      <g>
       <use xlink:href="#m7ddda96d6c" x="374.913125" y="179.891296" style="stroke: #000000; stroke-width: 0.8"/>
      </g>
     </g>
    </g>
    <g id="ytick_14">
     <g id="line2d_38">
      <path d="M 374.913125 150.672121 
L 694.923125 150.672121 
" clip-path="url(#pf8a11c68fe)" style="fill: none; stroke: #b0b0b0; stroke-opacity: 0.15; stroke-width: 0.8; stroke-linecap: square"/>
     </g>
     <g id="line2d_39">
      <g>
       <use xlink:href="#m7ddda96d6c" x="374.913125" y="150.672121" style="stroke: #000000; stroke-width: 0.8"/>
      </g>
     </g>
    </g>
    <g id="ytick_15">
     <g id="line2d_40">
      <path d="M 374.913125 121.452945 
L 694.923125 121.452945 
" clip-path="url(#pf8a11c68fe)" style="fill: none; stroke: #b0b0b0; stroke-opacity: 0.15; stroke-width: 0.8; stroke-linecap: square"/>
     </g>
     <g id="line2d_41">
      <g>
       <use xlink:href="#m7ddda96d6c" x="374.913125" y="121.452945" style="stroke: #000000; stroke-width: 0.8"/>
      </g>
     </g>
    </g>
    <g id="ytick_16">
     <g id="line2d_42">
      <path d="M 374.913125 92.233769 
L 694.923125 92.233769 
" clip-path="url(#pf8a11c68fe)" style="fill: none; stroke: #b0b0b0; stroke-opacity: 0.15; stroke-width: 0.8; stroke-linecap: square"/>
     </g>
     <g id="line2d_43">
      <g>
       <use xlink:href="#m7ddda96d6c" x="374.913125" y="92.233769" style="stroke: #000000; stroke-width: 0.8"/>
      </g>
     </g>
    </g>
   </g>
   <g id="line2d_44">
    <path d="M 389.459034 276.497197 
L 534.918125 238.147028 
L 680.377216 201.623059 
" clip-path="url(#pf8a11c68fe)" style="fill: none; stroke: #657888; stroke-width: 1.8; stroke-linecap: square"/>
    <g clip-path="url(#pf8a11c68fe)">
     <use xlink:href="#m5941795392" x="389.459034" y="276.497197" style="fill: #657888; stroke: #657888"/>
     <use xlink:href="#m5941795392" x="534.918125" y="238.147028" style="fill: #657888; stroke: #657888"/>
     <use xlink:href="#m5941795392" x="680.377216" y="201.623059" style="fill: #657888; stroke: #657888"/>
    </g>
   </g>
   <g id="line2d_45">
    <path d="M 389.459034 278.871255 
L 534.918125 260.42665 
L 680.377216 239.973227 
" clip-path="url(#pf8a11c68fe)" style="fill: none; stroke: #be8c42; stroke-width: 1.8; stroke-linecap: square"/>
    <g clip-path="url(#pf8a11c68fe)">
     <use xlink:href="#ma925fd6f6b" x="389.459034" y="278.871255" style="fill: #be8c42; stroke: #be8c42"/>
     <use xlink:href="#ma925fd6f6b" x="534.918125" y="260.42665" style="fill: #be8c42; stroke: #be8c42"/>
     <use xlink:href="#ma925fd6f6b" x="680.377216" y="239.973227" style="fill: #be8c42; stroke: #be8c42"/>
    </g>
   </g>
   <g id="line2d_46">
    <path d="M 389.459034 278.506015 
L 534.918125 265.540006 
L 680.377216 253.669716 
" clip-path="url(#pf8a11c68fe)" style="fill: none; stroke: #008c82; stroke-width: 1.8; stroke-linecap: square"/>
    <g clip-path="url(#pf8a11c68fe)">
     <use xlink:href="#m30b6b7d08d" x="389.459034" y="278.506015" style="fill: #008c82; stroke: #008c82"/>
     <use xlink:href="#m30b6b7d08d" x="534.918125" y="265.540006" style="fill: #008c82; stroke: #008c82"/>
     <use xlink:href="#m30b6b7d08d" x="680.377216" y="253.669716" style="fill: #008c82; stroke: #008c82"/>
    </g>
   </g>
   <g id="line2d_47">
    <path d="M 389.459034 258.235212 
L 534.918125 193.587785 
L 680.377216 123.096523 
" clip-path="url(#pf8a11c68fe)" style="fill: none; stroke: #b36f85; stroke-width: 1.8; stroke-linecap: square"/>
    <g clip-path="url(#pf8a11c68fe)">
     <use xlink:href="#m1e9f32fd7a" x="389.459034" y="258.235212" style="fill: #b36f85; stroke: #b36f85"/>
     <use xlink:href="#m1e9f32fd7a" x="534.918125" y="193.587785" style="fill: #b36f85; stroke: #b36f85"/>
     <use xlink:href="#m1e9f32fd7a" x="680.377216" y="123.096523" style="fill: #b36f85; stroke: #b36f85"/>
    </g>
   </g>
   <g id="line2d_48">
    <path d="M 389.459034 279.419114 
L 534.918125 279.236494 
L 680.377216 279.236494 
" clip-path="url(#pf8a11c68fe)" style="fill: none; stroke-dasharray: 6.66,2.88; stroke-dashoffset: 0; stroke: #263842; stroke-width: 1.8"/>
    <g clip-path="url(#pf8a11c68fe)">
     <use xlink:href="#m8a7f732960" x="389.459034" y="279.419114" style="fill: #263842; stroke: #263842"/>
     <use xlink:href="#m8a7f732960" x="534.918125" y="279.236494" style="fill: #263842; stroke: #263842"/>
     <use xlink:href="#m8a7f732960" x="680.377216" y="279.236494" style="fill: #263842; stroke: #263842"/>
    </g>
   </g>
   <g id="patch_6">
    <path d="M 374.913125 296.768 
L 374.913125 68.968 
" style="fill: none; stroke: #000000; stroke-width: 0.8; stroke-linejoin: miter; stroke-linecap: square"/>
   </g>
   <g id="patch_7">
    <path d="M 374.913125 296.768 
L 694.923125 296.768 
" style="fill: none; stroke: #000000; stroke-width: 0.8; stroke-linejoin: miter; stroke-linecap: square"/>
   </g>
   <g id="text_19">
    <!-- One shared event | H = 24k -->
    <g transform="translate(449.705938 62.968) scale(0.11 -0.11)">
     <defs>
      <path id="DejaVuSans-Bold-32" d="M 1844 884 
L 3897 884 
L 3897 0 
L 506 0 
L 506 884 
L 2209 2388 
Q 2438 2594 2547 2791 
Q 2656 2988 2656 3200 
Q 2656 3528 2436 3728 
Q 2216 3928 1850 3928 
Q 1569 3928 1234 3808 
Q 900 3688 519 3450 
L 519 4475 
Q 925 4609 1322 4679 
Q 1719 4750 2100 4750 
Q 2938 4750 3402 4381 
Q 3866 4013 3866 3353 
Q 3866 2972 3669 2642 
Q 3472 2313 2841 1759 
L 1844 884 
z
" transform="scale(0.015625)"/>
      <path id="DejaVuSans-Bold-34" d="M 2356 3675 
L 1038 1722 
L 2356 1722 
L 2356 3675 
z
M 2156 4666 
L 3494 4666 
L 3494 1722 
L 4159 1722 
L 4159 850 
L 3494 850 
L 3494 0 
L 2356 0 
L 2356 850 
L 288 850 
L 288 1881 
L 2156 4666 
z
" transform="scale(0.015625)"/>
     </defs>
     <use xlink:href="#DejaVuSans-Bold-4f"/>
     <use xlink:href="#DejaVuSans-Bold-6e" x="85.009766"/>
     <use xlink:href="#DejaVuSans-Bold-65" x="156.201172"/>
     <use xlink:href="#DejaVuSans-Bold-20" x="224.023438"/>
     <use xlink:href="#DejaVuSans-Bold-73" x="258.837891"/>
     <use xlink:href="#DejaVuSans-Bold-68" x="318.359375"/>
     <use xlink:href="#DejaVuSans-Bold-61" x="389.550781"/>
     <use xlink:href="#DejaVuSans-Bold-72" x="457.03125"/>
     <use xlink:href="#DejaVuSans-Bold-65" x="506.347656"/>
     <use xlink:href="#DejaVuSans-Bold-64" x="574.169922"/>
     <use xlink:href="#DejaVuSans-Bold-20" x="645.751953"/>
     <use xlink:href="#DejaVuSans-Bold-65" x="680.566406"/>
     <use xlink:href="#DejaVuSans-Bold-76" x="748.388672"/>
     <use xlink:href="#DejaVuSans-Bold-65" x="813.574219"/>
     <use xlink:href="#DejaVuSans-Bold-6e" x="881.396484"/>
     <use xlink:href="#DejaVuSans-Bold-74" x="952.587891"/>
     <use xlink:href="#DejaVuSans-Bold-20" x="1000.390625"/>
     <use xlink:href="#DejaVuSans-Bold-7c" x="1035.205078"/>
     <use xlink:href="#DejaVuSans-Bold-20" x="1071.728516"/>
     <use xlink:href="#DejaVuSans-Bold-48" x="1106.542969"/>
     <use xlink:href="#DejaVuSans-Bold-20" x="1190.234375"/>
     <use xlink:href="#DejaVuSans-Bold-3d" x="1225.048828"/>
     <use xlink:href="#DejaVuSans-Bold-20" x="1308.837891"/>
     <use xlink:href="#DejaVuSans-Bold-32" x="1343.652344"/>
     <use xlink:href="#DejaVuSans-Bold-34" x="1413.232422"/>
     <use xlink:href="#DejaVuSans-Bold-6b" x="1482.8125"/>
    </g>
   </g>
  </g>
  <g id="axes_3">
   <g id="patch_8">
    <path d="M 709.223125 296.768 
L 1029.233125 296.768 
L 1029.233125 68.968 
L 709.223125 68.968 
z
" style="fill: #ffffff"/>
   </g>
   <g id="PolyCollection_11">
    <defs>
     <path id="m35fd9c48a8" d="M 723.769034 -125.295707 
L 723.769034 -122.556409 
L 1014.687216 -163.645876 
L 1014.687216 -168.393992 
L 1014.687216 -168.393992 
L 723.769034 -125.295707 
z
"/>
    </defs>
    <g clip-path="url(#p0c17b7389b)">
     <use xlink:href="#m35fd9c48a8" x="0" y="359.607719" style="fill: #657888; fill-opacity: 0.12"/>
    </g>
   </g>
   <g id="PolyCollection_12">
    <defs>
     <path id="ma48eeb13c7" d="M 723.769034 -109.5904 
L 723.769034 -106.851102 
L 1014.687216 -128.217625 
L 1014.687216 -131.870022 
L 1014.687216 -131.870022 
L 723.769034 -109.5904 
z
"/>
    </defs>
    <g clip-path="url(#p0c17b7389b)">
     <use xlink:href="#ma48eeb13c7" x="0" y="359.607719" style="fill: #be8c42; fill-opacity: 0.12"/>
    </g>
   </g>
   <g id="PolyCollection_13">
    <defs>
     <path id="m2e22a52a0d" d="M 723.769034 -98.815829 
L 723.769034 -96.259151 
L 1014.687216 -110.13826 
L 1014.687216 -113.425417 
L 1014.687216 -113.425417 
L 723.769034 -98.815829 
z
"/>
    </defs>
    <g clip-path="url(#p0c17b7389b)">
     <use xlink:href="#m2e22a52a0d" x="0" y="359.607719" style="fill: #008c82; fill-opacity: 0.12"/>
    </g>
   </g>
   <g id="PolyCollection_14">
    <defs>
     <path id="m742d61c5ec" d="M 723.769034 -174.603067 
L 723.769034 -171.498529 
L 1014.687216 -244.729089 
L 1014.687216 -249.477205 
L 1014.687216 -249.477205 
L 723.769034 -174.603067 
z
"/>
    </defs>
    <g clip-path="url(#p0c17b7389b)">
     <use xlink:href="#m742d61c5ec" x="0" y="359.607719" style="fill: #b36f85; fill-opacity: 0.12"/>
    </g>
   </g>
   <g id="PolyCollection_15">
    <defs>
     <path id="m8530594525" d="M 723.769034 -80.371224 
L 723.769034 -80.371224 
L 1014.687216 -80.371224 
L 1014.687216 -80.371224 
L 1014.687216 -80.371224 
L 723.769034 -80.371224 
z
"/>
    </defs>
    <g clip-path="url(#p0c17b7389b)">
     <use xlink:href="#m8530594525" x="0" y="359.607719" style="fill: #263842; fill-opacity: 0.12"/>
    </g>
   </g>
   <g id="matplotlib.axis_5">
    <g id="xtick_7">
     <g id="line2d_49">
      <g>
       <use xlink:href="#m8928100c82" x="723.769034" y="296.768" style="stroke: #000000; stroke-width: 0.8"/>
      </g>
     </g>
     <g id="text_20">
      <!-- 8 -->
      <g transform="translate(720.587784 311.366437) scale(0.1 -0.1)">
       <use xlink:href="#DejaVuSans-38"/>
      </g>
     </g>
    </g>
    <g id="xtick_8">
     <g id="line2d_50">
      <g>
       <use xlink:href="#m8928100c82" x="1014.687216" y="296.768" style="stroke: #000000; stroke-width: 0.8"/>
      </g>
     </g>
     <g id="text_21">
      <!-- 12 -->
      <g transform="translate(1008.324716 311.366437) scale(0.1 -0.1)">
       <use xlink:href="#DejaVuSans-31"/>
       <use xlink:href="#DejaVuSans-32" x="63.623047"/>
      </g>
     </g>
    </g>
    <g id="text_22">
     <!-- Progress events per branch k -->
     <g transform="translate(796.110938 325.044562) scale(0.1 -0.1)">
      <use xlink:href="#DejaVuSans-50"/>
      <use xlink:href="#DejaVuSans-72" x="58.552734"/>
      <use xlink:href="#DejaVuSans-6f" x="97.416016"/>
      <use xlink:href="#DejaVuSans-67" x="158.597656"/>
      <use xlink:href="#DejaVuSans-72" x="222.074219"/>
      <use xlink:href="#DejaVuSans-65" x="260.9375"/>
      <use xlink:href="#DejaVuSans-73" x="322.460938"/>
      <use xlink:href="#DejaVuSans-73" x="374.560547"/>
      <use xlink:href="#DejaVuSans-20" x="426.660156"/>
      <use xlink:href="#DejaVuSans-65" x="458.447266"/>
      <use xlink:href="#DejaVuSans-76" x="519.970703"/>
      <use xlink:href="#DejaVuSans-65" x="579.150391"/>
      <use xlink:href="#DejaVuSans-6e" x="640.673828"/>
      <use xlink:href="#DejaVuSans-74" x="704.052734"/>
      <use xlink:href="#DejaVuSans-73" x="743.261719"/>
      <use xlink:href="#DejaVuSans-20" x="795.361328"/>
      <use xlink:href="#DejaVuSans-70" x="827.148438"/>
      <use xlink:href="#DejaVuSans-65" x="890.625"/>
      <use xlink:href="#DejaVuSans-72" x="952.148438"/>
      <use xlink:href="#DejaVuSans-20" x="993.261719"/>
      <use xlink:href="#DejaVuSans-62" x="1025.048828"/>
      <use xlink:href="#DejaVuSans-72" x="1088.525391"/>
      <use xlink:href="#DejaVuSans-61" x="1129.638672"/>
      <use xlink:href="#DejaVuSans-6e" x="1190.917969"/>
      <use xlink:href="#DejaVuSans-63" x="1254.296875"/>
      <use xlink:href="#DejaVuSans-68" x="1309.277344"/>
      <use xlink:href="#DejaVuSans-20" x="1372.65625"/>
      <use xlink:href="#DejaVuSans-6b" x="1404.443359"/>
     </g>
    </g>
   </g>
   <g id="matplotlib.axis_6">
    <g id="ytick_17">
     <g id="line2d_51">
      <path d="M 709.223125 296.768 
L 1029.233125 296.768 
" clip-path="url(#p0c17b7389b)" style="fill: none; stroke: #b0b0b0; stroke-opacity: 0.15; stroke-width: 0.8; stroke-linecap: square"/>
     </g>
     <g id="line2d_52">
      <g>
       <use xlink:href="#m7ddda96d6c" x="709.223125" y="296.768" style="stroke: #000000; stroke-width: 0.8"/>
      </g>
     </g>
    </g>
    <g id="ytick_18">
     <g id="line2d_53">
      <path d="M 709.223125 267.548824 
L 1029.233125 267.548824 
" clip-path="url(#p0c17b7389b)" style="fill: none; stroke: #b0b0b0; stroke-opacity: 0.15; stroke-width: 0.8; stroke-linecap: square"/>
     </g>
     <g id="line2d_54">
      <g>
       <use xlink:href="#m7ddda96d6c" x="709.223125" y="267.548824" style="stroke: #000000; stroke-width: 0.8"/>
      </g>
     </g>
    </g>
    <g id="ytick_19">
     <g id="line2d_55">
      <path d="M 709.223125 238.329648 
L 1029.233125 238.329648 
" clip-path="url(#p0c17b7389b)" style="fill: none; stroke: #b0b0b0; stroke-opacity: 0.15; stroke-width: 0.8; stroke-linecap: square"/>
     </g>
     <g id="line2d_56">
      <g>
       <use xlink:href="#m7ddda96d6c" x="709.223125" y="238.329648" style="stroke: #000000; stroke-width: 0.8"/>
      </g>
     </g>
    </g>
    <g id="ytick_20">
     <g id="line2d_57">
      <path d="M 709.223125 209.110472 
L 1029.233125 209.110472 
" clip-path="url(#p0c17b7389b)" style="fill: none; stroke: #b0b0b0; stroke-opacity: 0.15; stroke-width: 0.8; stroke-linecap: square"/>
     </g>
     <g id="line2d_58">
      <g>
       <use xlink:href="#m7ddda96d6c" x="709.223125" y="209.110472" style="stroke: #000000; stroke-width: 0.8"/>
      </g>
     </g>
    </g>
    <g id="ytick_21">
     <g id="line2d_59">
      <path d="M 709.223125 179.891296 
L 1029.233125 179.891296 
" clip-path="url(#p0c17b7389b)" style="fill: none; stroke: #b0b0b0; stroke-opacity: 0.15; stroke-width: 0.8; stroke-linecap: square"/>
     </g>
     <g id="line2d_60">
      <g>
       <use xlink:href="#m7ddda96d6c" x="709.223125" y="179.891296" style="stroke: #000000; stroke-width: 0.8"/>
      </g>
     </g>
    </g>
    <g id="ytick_22">
     <g id="line2d_61">
      <path d="M 709.223125 150.672121 
L 1029.233125 150.672121 
" clip-path="url(#p0c17b7389b)" style="fill: none; stroke: #b0b0b0; stroke-opacity: 0.15; stroke-width: 0.8; stroke-linecap: square"/>
     </g>
     <g id="line2d_62">
      <g>
       <use xlink:href="#m7ddda96d6c" x="709.223125" y="150.672121" style="stroke: #000000; stroke-width: 0.8"/>
      </g>
     </g>
    </g>
    <g id="ytick_23">
     <g id="line2d_63">
      <path d="M 709.223125 121.452945 
L 1029.233125 121.452945 
" clip-path="url(#p0c17b7389b)" style="fill: none; stroke: #b0b0b0; stroke-opacity: 0.15; stroke-width: 0.8; stroke-linecap: square"/>
     </g>
     <g id="line2d_64">
      <g>
       <use xlink:href="#m7ddda96d6c" x="709.223125" y="121.452945" style="stroke: #000000; stroke-width: 0.8"/>
      </g>
     </g>
    </g>
    <g id="ytick_24">
     <g id="line2d_65">
      <path d="M 709.223125 92.233769 
L 1029.233125 92.233769 
" clip-path="url(#p0c17b7389b)" style="fill: none; stroke: #b0b0b0; stroke-opacity: 0.15; stroke-width: 0.8; stroke-linecap: square"/>
     </g>
     <g id="line2d_66">
      <g>
       <use xlink:href="#m7ddda96d6c" x="709.223125" y="92.233769" style="stroke: #000000; stroke-width: 0.8"/>
      </g>
     </g>
    </g>
   </g>
   <g id="line2d_67">
    <path d="M 723.769034 235.77297 
L 1014.687216 193.587785 
" clip-path="url(#p0c17b7389b)" style="fill: none; stroke: #657888; stroke-width: 1.8; stroke-linecap: square"/>
    <g clip-path="url(#p0c17b7389b)">
     <use xlink:href="#m5941795392" x="723.769034" y="235.77297" style="fill: #657888; stroke: #657888"/>
     <use xlink:href="#m5941795392" x="1014.687216" y="193.587785" style="fill: #657888; stroke: #657888"/>
    </g>
   </g>
   <g id="line2d_68">
    <path d="M 723.769034 251.478277 
L 1014.687216 229.563895 
" clip-path="url(#p0c17b7389b)" style="fill: none; stroke: #be8c42; stroke-width: 1.8; stroke-linecap: square"/>
    <g clip-path="url(#p0c17b7389b)">
     <use xlink:href="#ma925fd6f6b" x="723.769034" y="251.478277" style="fill: #be8c42; stroke: #be8c42"/>
     <use xlink:href="#ma925fd6f6b" x="1014.687216" y="229.563895" style="fill: #be8c42; stroke: #be8c42"/>
    </g>
   </g>
   <g id="line2d_69">
    <path d="M 723.769034 262.070229 
L 1014.687216 247.82588 
" clip-path="url(#p0c17b7389b)" style="fill: none; stroke: #008c82; stroke-width: 1.8; stroke-linecap: square"/>
    <g clip-path="url(#p0c17b7389b)">
     <use xlink:href="#m30b6b7d08d" x="723.769034" y="262.070229" style="fill: #008c82; stroke: #008c82"/>
     <use xlink:href="#m30b6b7d08d" x="1014.687216" y="247.82588" style="fill: #008c82; stroke: #008c82"/>
    </g>
   </g>
   <g id="line2d_70">
    <path d="M 723.769034 186.465611 
L 1014.687216 112.504572 
" clip-path="url(#p0c17b7389b)" style="fill: none; stroke: #b36f85; stroke-width: 1.8; stroke-linecap: square"/>
    <g clip-path="url(#p0c17b7389b)">
     <use xlink:href="#m1e9f32fd7a" x="723.769034" y="186.465611" style="fill: #b36f85; stroke: #b36f85"/>
     <use xlink:href="#m1e9f32fd7a" x="1014.687216" y="112.504572" style="fill: #b36f85; stroke: #b36f85"/>
    </g>
   </g>
   <g id="line2d_71">
    <path d="M 723.769034 279.236494 
L 1014.687216 279.236494 
" clip-path="url(#p0c17b7389b)" style="fill: none; stroke-dasharray: 6.66,2.88; stroke-dashoffset: 0; stroke: #263842; stroke-width: 1.8"/>
    <g clip-path="url(#p0c17b7389b)">
     <use xlink:href="#m8a7f732960" x="723.769034" y="279.236494" style="fill: #263842; stroke: #263842"/>
     <use xlink:href="#m8a7f732960" x="1014.687216" y="279.236494" style="fill: #263842; stroke: #263842"/>
    </g>
   </g>
   <g id="patch_9">
    <path d="M 709.223125 296.768 
L 709.223125 68.968 
" style="fill: none; stroke: #000000; stroke-width: 0.8; stroke-linejoin: miter; stroke-linecap: square"/>
   </g>
   <g id="patch_10">
    <path d="M 709.223125 296.768 
L 1029.233125 296.768 
" style="fill: none; stroke: #000000; stroke-width: 0.8; stroke-linejoin: miter; stroke-linecap: square"/>
   </g>
   <g id="text_23">
    <!-- Three shared events | H = 20k -->
    <g transform="translate(775.223672 62.968) scale(0.11 -0.11)">
     <defs>
      <path id="DejaVuSans-Bold-54" d="M 31 4666 
L 4331 4666 
L 4331 3756 
L 2784 3756 
L 2784 0 
L 1581 0 
L 1581 3756 
L 31 3756 
L 31 4666 
z
" transform="scale(0.015625)"/>
      <path id="DejaVuSans-Bold-30" d="M 2944 2338 
Q 2944 3213 2780 3570 
Q 2616 3928 2228 3928 
Q 1841 3928 1675 3570 
Q 1509 3213 1509 2338 
Q 1509 1453 1675 1090 
Q 1841 728 2228 728 
Q 2613 728 2778 1090 
Q 2944 1453 2944 2338 
z
M 4147 2328 
Q 4147 1169 3647 539 
Q 3147 -91 2228 -91 
Q 1306 -91 806 539 
Q 306 1169 306 2328 
Q 306 3491 806 4120 
Q 1306 4750 2228 4750 
Q 3147 4750 3647 4120 
Q 4147 3491 4147 2328 
z
" transform="scale(0.015625)"/>
     </defs>
     <use xlink:href="#DejaVuSans-Bold-54"/>
     <use xlink:href="#DejaVuSans-Bold-68" x="68.212891"/>
     <use xlink:href="#DejaVuSans-Bold-72" x="139.404297"/>
     <use xlink:href="#DejaVuSans-Bold-65" x="188.720703"/>
     <use xlink:href="#DejaVuSans-Bold-65" x="256.542969"/>
     <use xlink:href="#DejaVuSans-Bold-20" x="324.365234"/>
     <use xlink:href="#DejaVuSans-Bold-73" x="359.179688"/>
     <use xlink:href="#DejaVuSans-Bold-68" x="418.701172"/>
     <use xlink:href="#DejaVuSans-Bold-61" x="489.892578"/>
     <use xlink:href="#DejaVuSans-Bold-72" x="557.373047"/>
     <use xlink:href="#DejaVuSans-Bold-65" x="606.689453"/>
     <use xlink:href="#DejaVuSans-Bold-64" x="674.511719"/>
     <use xlink:href="#DejaVuSans-Bold-20" x="746.09375"/>
     <use xlink:href="#DejaVuSans-Bold-65" x="780.908203"/>
     <use xlink:href="#DejaVuSans-Bold-76" x="848.730469"/>
     <use xlink:href="#DejaVuSans-Bold-65" x="913.916016"/>
     <use xlink:href="#DejaVuSans-Bold-6e" x="981.738281"/>
     <use xlink:href="#DejaVuSans-Bold-74" x="1052.929688"/>
     <use xlink:href="#DejaVuSans-Bold-73" x="1100.732422"/>
     <use xlink:href="#DejaVuSans-Bold-20" x="1160.253906"/>
     <use xlink:href="#DejaVuSans-Bold-7c" x="1195.068359"/>
     <use xlink:href="#DejaVuSans-Bold-20" x="1231.591797"/>
     <use xlink:href="#DejaVuSans-Bold-48" x="1266.40625"/>
     <use xlink:href="#DejaVuSans-Bold-20" x="1350.097656"/>
     <use xlink:href="#DejaVuSans-Bold-3d" x="1384.912109"/>
     <use xlink:href="#DejaVuSans-Bold-20" x="1468.701172"/>
     <use xlink:href="#DejaVuSans-Bold-32" x="1503.515625"/>
     <use xlink:href="#DejaVuSans-Bold-30" x="1573.095703"/>
     <use xlink:href="#DejaVuSans-Bold-6b" x="1642.675781"/>
    </g>
   </g>
  </g>
  <g id="text_24">
   <!-- 32 new seeds per point. Count and last-event baselines: 0/32 solved at every point, censored at 100k (omitted from these curves). -->
   <g style="fill: #596774" transform="translate(222.269922 350.536) scale(0.09 -0.09)">
    <defs>
     <path id="DejaVuSans-77" d="M 269 3500 
L 844 3500 
L 1563 769 
L 2278 3500 
L 2956 3500 
L 3675 769 
L 4391 3500 
L 4966 3500 
L 4050 0 
L 3372 0 
L 2619 2869 
L 1863 0 
L 1184 0 
L 269 3500 
z
" transform="scale(0.015625)"/>
     <path id="DejaVuSans-2e" d="M 684 794 
L 1344 794 
L 1344 0 
L 684 0 
L 684 794 
z
" transform="scale(0.015625)"/>
     <path id="DejaVuSans-43" d="M 4122 4306 
L 4122 3641 
Q 3803 3938 3442 4084 
Q 3081 4231 2675 4231 
Q 1875 4231 1450 3742 
Q 1025 3253 1025 2328 
Q 1025 1406 1450 917 
Q 1875 428 2675 428 
Q 3081 428 3442 575 
Q 3803 722 4122 1019 
L 4122 359 
Q 3791 134 3420 21 
Q 3050 -91 2638 -91 
Q 1578 -91 968 557 
Q 359 1206 359 2328 
Q 359 3453 968 4101 
Q 1578 4750 2638 4750 
Q 3056 4750 3426 4639 
Q 3797 4528 4122 4306 
z
" transform="scale(0.015625)"/>
     <path id="DejaVuSans-6c" d="M 603 4863 
L 1178 4863 
L 1178 0 
L 603 0 
L 603 4863 
z
" transform="scale(0.015625)"/>
     <path id="DejaVuSans-2d" d="M 313 2009 
L 1997 2009 
L 1997 1497 
L 313 1497 
L 313 2009 
z
" transform="scale(0.015625)"/>
     <path id="DejaVuSans-3a" d="M 750 794 
L 1409 794 
L 1409 0 
L 750 0 
L 750 794 
z
M 750 3309 
L 1409 3309 
L 1409 2516 
L 750 2516 
L 750 3309 
z
" transform="scale(0.015625)"/>
     <path id="DejaVuSans-2f" d="M 1625 4666 
L 2156 4666 
L 531 -594 
L 0 -594 
L 1625 4666 
z
" transform="scale(0.015625)"/>
     <path id="DejaVuSans-79" d="M 2059 -325 
Q 1816 -950 1584 -1140 
Q 1353 -1331 966 -1331 
L 506 -1331 
L 506 -850 
L 844 -850 
Q 1081 -850 1212 -737 
Q 1344 -625 1503 -206 
L 1606 56 
L 191 3500 
L 800 3500 
L 1894 763 
L 2988 3500 
L 3597 3500 
L 2059 -325 
z
" transform="scale(0.015625)"/>
     <path id="DejaVuSans-2c" d="M 750 794 
L 1409 794 
L 1409 256 
L 897 -744 
L 494 -744 
L 750 256 
L 750 794 
z
" transform="scale(0.015625)"/>
     <path id="DejaVuSans-6d" d="M 3328 2828 
Q 3544 3216 3844 3400 
Q 4144 3584 4550 3584 
Q 5097 3584 5394 3201 
Q 5691 2819 5691 2113 
L 5691 0 
L 5113 0 
L 5113 2094 
Q 5113 2597 4934 2840 
Q 4756 3084 4391 3084 
Q 3944 3084 3684 2787 
Q 3425 2491 3425 1978 
L 3425 0 
L 2847 0 
L 2847 2094 
Q 2847 2600 2669 2842 
Q 2491 3084 2119 3084 
Q 1678 3084 1418 2786 
Q 1159 2488 1159 1978 
L 1159 0 
L 581 0 
L 581 3500 
L 1159 3500 
L 1159 2956 
Q 1356 3278 1631 3431 
Q 1906 3584 2284 3584 
Q 2666 3584 2933 3390 
Q 3200 3197 3328 2828 
z
" transform="scale(0.015625)"/>
     <path id="DejaVuSans-66" d="M 2375 4863 
L 2375 4384 
L 1825 4384 
Q 1516 4384 1395 4259 
Q 1275 4134 1275 3809 
L 1275 3500 
L 2222 3500 
L 2222 3053 
L 1275 3053 
L 1275 0 
L 697 0 
L 697 3053 
L 147 3053 
L 147 3500 
L 697 3500 
L 697 3744 
Q 697 4328 969 4595 
Q 1241 4863 1831 4863 
L 2375 4863 
z
" transform="scale(0.015625)"/>
    </defs>
    <use xlink:href="#DejaVuSans-33"/>
    <use xlink:href="#DejaVuSans-32" x="63.623047"/>
    <use xlink:href="#DejaVuSans-20" x="127.246094"/>
    <use xlink:href="#DejaVuSans-6e" x="159.033203"/>
    <use xlink:href="#DejaVuSans-65" x="222.412109"/>
    <use xlink:href="#DejaVuSans-77" x="283.935547"/>
    <use xlink:href="#DejaVuSans-20" x="365.722656"/>
    <use xlink:href="#DejaVuSans-73" x="397.509766"/>
    <use xlink:href="#DejaVuSans-65" x="449.609375"/>
    <use xlink:href="#DejaVuSans-65" x="511.132812"/>
    <use xlink:href="#DejaVuSans-64" x="572.65625"/>
    <use xlink:href="#DejaVuSans-73" x="636.132812"/>
    <use xlink:href="#DejaVuSans-20" x="688.232422"/>
    <use xlink:href="#DejaVuSans-70" x="720.019531"/>
    <use xlink:href="#DejaVuSans-65" x="783.496094"/>
    <use xlink:href="#DejaVuSans-72" x="845.019531"/>
    <use xlink:href="#DejaVuSans-20" x="886.132812"/>
    <use xlink:href="#DejaVuSans-70" x="917.919922"/>
    <use xlink:href="#DejaVuSans-6f" x="981.396484"/>
    <use xlink:href="#DejaVuSans-69" x="1042.578125"/>
    <use xlink:href="#DejaVuSans-6e" x="1070.361328"/>
    <use xlink:href="#DejaVuSans-74" x="1133.740234"/>
    <use xlink:href="#DejaVuSans-2e" x="1172.949219"/>
    <use xlink:href="#DejaVuSans-20" x="1204.736328"/>
    <use xlink:href="#DejaVuSans-43" x="1236.523438"/>
    <use xlink:href="#DejaVuSans-6f" x="1306.347656"/>
    <use xlink:href="#DejaVuSans-75" x="1367.529297"/>
    <use xlink:href="#DejaVuSans-6e" x="1430.908203"/>
    <use xlink:href="#DejaVuSans-74" x="1494.287109"/>
    <use xlink:href="#DejaVuSans-20" x="1533.496094"/>
    <use xlink:href="#DejaVuSans-61" x="1565.283203"/>
    <use xlink:href="#DejaVuSans-6e" x="1626.5625"/>
    <use xlink:href="#DejaVuSans-64" x="1689.941406"/>
    <use xlink:href="#DejaVuSans-20" x="1753.417969"/>
    <use xlink:href="#DejaVuSans-6c" x="1785.205078"/>
    <use xlink:href="#DejaVuSans-61" x="1812.988281"/>
    <use xlink:href="#DejaVuSans-73" x="1874.267578"/>
    <use xlink:href="#DejaVuSans-74" x="1926.367188"/>
    <use xlink:href="#DejaVuSans-2d" x="1965.576172"/>
    <use xlink:href="#DejaVuSans-65" x="2001.660156"/>
    <use xlink:href="#DejaVuSans-76" x="2063.183594"/>
    <use xlink:href="#DejaVuSans-65" x="2122.363281"/>
    <use xlink:href="#DejaVuSans-6e" x="2183.886719"/>
    <use xlink:href="#DejaVuSans-74" x="2247.265625"/>
    <use xlink:href="#DejaVuSans-20" x="2286.474609"/>
    <use xlink:href="#DejaVuSans-62" x="2318.261719"/>
    <use xlink:href="#DejaVuSans-61" x="2381.738281"/>
    <use xlink:href="#DejaVuSans-73" x="2443.017578"/>
    <use xlink:href="#DejaVuSans-65" x="2495.117188"/>
    <use xlink:href="#DejaVuSans-6c" x="2556.640625"/>
    <use xlink:href="#DejaVuSans-69" x="2584.423828"/>
    <use xlink:href="#DejaVuSans-6e" x="2612.207031"/>
    <use xlink:href="#DejaVuSans-65" x="2675.585938"/>
    <use xlink:href="#DejaVuSans-73" x="2737.109375"/>
    <use xlink:href="#DejaVuSans-3a" x="2789.208984"/>
    <use xlink:href="#DejaVuSans-20" x="2822.900391"/>
    <use xlink:href="#DejaVuSans-30" x="2854.6875"/>
    <use xlink:href="#DejaVuSans-2f" x="2918.310547"/>
    <use xlink:href="#DejaVuSans-33" x="2952.001953"/>
    <use xlink:href="#DejaVuSans-32" x="3015.625"/>
    <use xlink:href="#DejaVuSans-20" x="3079.248047"/>
    <use xlink:href="#DejaVuSans-73" x="3111.035156"/>
    <use xlink:href="#DejaVuSans-6f" x="3163.134766"/>
    <use xlink:href="#DejaVuSans-6c" x="3224.316406"/>
    <use xlink:href="#DejaVuSans-76" x="3252.099609"/>
    <use xlink:href="#DejaVuSans-65" x="3311.279297"/>
    <use xlink:href="#DejaVuSans-64" x="3372.802734"/>
    <use xlink:href="#DejaVuSans-20" x="3436.279297"/>
    <use xlink:href="#DejaVuSans-61" x="3468.066406"/>
    <use xlink:href="#DejaVuSans-74" x="3529.345703"/>
    <use xlink:href="#DejaVuSans-20" x="3568.554688"/>
    <use xlink:href="#DejaVuSans-65" x="3600.341797"/>
    <use xlink:href="#DejaVuSans-76" x="3661.865234"/>
    <use xlink:href="#DejaVuSans-65" x="3721.044922"/>
    <use xlink:href="#DejaVuSans-72" x="3782.568359"/>
    <use xlink:href="#DejaVuSans-79" x="3823.681641"/>
    <use xlink:href="#DejaVuSans-20" x="3882.861328"/>
    <use xlink:href="#DejaVuSans-70" x="3914.648438"/>
    <use xlink:href="#DejaVuSans-6f" x="3978.125"/>
    <use xlink:href="#DejaVuSans-69" x="4039.306641"/>
    <use xlink:href="#DejaVuSans-6e" x="4067.089844"/>
    <use xlink:href="#DejaVuSans-74" x="4130.46875"/>
    <use xlink:href="#DejaVuSans-2c" x="4169.677734"/>
    <use xlink:href="#DejaVuSans-20" x="4201.464844"/>
    <use xlink:href="#DejaVuSans-63" x="4233.251953"/>
    <use xlink:href="#DejaVuSans-65" x="4288.232422"/>
    <use xlink:href="#DejaVuSans-6e" x="4349.755859"/>
    <use xlink:href="#DejaVuSans-73" x="4413.134766"/>
    <use xlink:href="#DejaVuSans-6f" x="4465.234375"/>
    <use xlink:href="#DejaVuSans-72" x="4526.416016"/>
    <use xlink:href="#DejaVuSans-65" x="4565.279297"/>
    <use xlink:href="#DejaVuSans-64" x="4626.802734"/>
    <use xlink:href="#DejaVuSans-20" x="4690.279297"/>
    <use xlink:href="#DejaVuSans-61" x="4722.066406"/>
    <use xlink:href="#DejaVuSans-74" x="4783.345703"/>
    <use xlink:href="#DejaVuSans-20" x="4822.554688"/>
    <use xlink:href="#DejaVuSans-31" x="4854.341797"/>
    <use xlink:href="#DejaVuSans-30" x="4917.964844"/>
    <use xlink:href="#DejaVuSans-30" x="4981.587891"/>
    <use xlink:href="#DejaVuSans-6b" x="5045.210938"/>
    <use xlink:href="#DejaVuSans-20" x="5103.121094"/>
    <use xlink:href="#DejaVuSans-28" x="5134.908203"/>
    <use xlink:href="#DejaVuSans-6f" x="5173.921875"/>
    <use xlink:href="#DejaVuSans-6d" x="5235.103516"/>
    <use xlink:href="#DejaVuSans-69" x="5332.515625"/>
    <use xlink:href="#DejaVuSans-74" x="5360.298828"/>
    <use xlink:href="#DejaVuSans-74" x="5399.507812"/>
    <use xlink:href="#DejaVuSans-65" x="5438.716797"/>
    <use xlink:href="#DejaVuSans-64" x="5500.240234"/>
    <use xlink:href="#DejaVuSans-20" x="5563.716797"/>
    <use xlink:href="#DejaVuSans-66" x="5595.503906"/>
    <use xlink:href="#DejaVuSans-72" x="5630.708984"/>
    <use xlink:href="#DejaVuSans-6f" x="5669.572266"/>
    <use xlink:href="#DejaVuSans-6d" x="5730.753906"/>
    <use xlink:href="#DejaVuSans-20" x="5828.166016"/>
    <use xlink:href="#DejaVuSans-74" x="5859.953125"/>
    <use xlink:href="#DejaVuSans-68" x="5899.162109"/>
    <use xlink:href="#DejaVuSans-65" x="5962.541016"/>
    <use xlink:href="#DejaVuSans-73" x="6024.064453"/>
    <use xlink:href="#DejaVuSans-65" x="6076.164062"/>
    <use xlink:href="#DejaVuSans-20" x="6137.6875"/>
    <use xlink:href="#DejaVuSans-63" x="6169.474609"/>
    <use xlink:href="#DejaVuSans-75" x="6224.455078"/>
    <use xlink:href="#DejaVuSans-72" x="6287.833984"/>
    <use xlink:href="#DejaVuSans-76" x="6328.947266"/>
    <use xlink:href="#DejaVuSans-65" x="6388.126953"/>
    <use xlink:href="#DejaVuSans-73" x="6449.650391"/>
    <use xlink:href="#DejaVuSans-29" x="6501.75"/>
    <use xlink:href="#DejaVuSans-2e" x="6540.763672"/>
   </g>
  </g>
  <g id="legend_1">
   <g id="line2d_72">
    <path d="M 309.158906 15.298437 
L 319.158906 15.298437 
L 329.158906 15.298437 
" style="fill: none; stroke: #657888; stroke-width: 1.8; stroke-linecap: square"/>
    <g>
     <use xlink:href="#m5941795392" x="319.158906" y="15.298437" style="fill: #657888; stroke: #657888"/>
    </g>
   </g>
   <g id="text_25">
    <!-- Full history + replay -->
    <g transform="translate(337.158906 18.798437) scale(0.1 -0.1)">
     <defs>
      <path id="DejaVuSans-46" d="M 628 4666 
L 3309 4666 
L 3309 4134 
L 1259 4134 
L 1259 2759 
L 3109 2759 
L 3109 2228 
L 1259 2228 
L 1259 0 
L 628 0 
L 628 4666 
z
" transform="scale(0.015625)"/>
      <path id="DejaVuSans-2b" d="M 2944 4013 
L 2944 2272 
L 4684 2272 
L 4684 1741 
L 2944 1741 
L 2944 0 
L 2419 0 
L 2419 1741 
L 678 1741 
L 678 2272 
L 2419 2272 
L 2419 4013 
L 2944 4013 
z
" transform="scale(0.015625)"/>
     </defs>
     <use xlink:href="#DejaVuSans-46"/>
     <use xlink:href="#DejaVuSans-75" x="52.019531"/>
     <use xlink:href="#DejaVuSans-6c" x="115.398438"/>
     <use xlink:href="#DejaVuSans-6c" x="143.181641"/>
     <use xlink:href="#DejaVuSans-20" x="170.964844"/>
     <use xlink:href="#DejaVuSans-68" x="202.751953"/>
     <use xlink:href="#DejaVuSans-69" x="266.130859"/>
     <use xlink:href="#DejaVuSans-73" x="293.914062"/>
     <use xlink:href="#DejaVuSans-74" x="346.013672"/>
     <use xlink:href="#DejaVuSans-6f" x="385.222656"/>
     <use xlink:href="#DejaVuSans-72" x="446.404297"/>
     <use xlink:href="#DejaVuSans-79" x="487.517578"/>
     <use xlink:href="#DejaVuSans-20" x="546.697266"/>
     <use xlink:href="#DejaVuSans-2b" x="578.484375"/>
     <use xlink:href="#DejaVuSans-20" x="662.273438"/>
     <use xlink:href="#DejaVuSans-72" x="694.060547"/>
     <use xlink:href="#DejaVuSans-65" x="732.923828"/>
     <use xlink:href="#DejaVuSans-70" x="794.447266"/>
     <use xlink:href="#DejaVuSans-6c" x="857.923828"/>
     <use xlink:href="#DejaVuSans-61" x="885.707031"/>
     <use xlink:href="#DejaVuSans-79" x="946.986328"/>
    </g>
   </g>
   <g id="line2d_73">
    <path d="M 309.158906 29.976562 
L 319.158906 29.976562 
L 329.158906 29.976562 
" style="fill: none; stroke: #be8c42; stroke-width: 1.8; stroke-linecap: square"/>
    <g>
     <use xlink:href="#ma925fd6f6b" x="319.158906" y="29.976562" style="fill: #be8c42; stroke: #be8c42"/>
    </g>
   </g>
   <g id="text_26">
    <!-- Hand monitor + replay -->
    <g transform="translate(337.158906 33.476562) scale(0.1 -0.1)">
     <defs>
      <path id="DejaVuSans-48" d="M 628 4666 
L 1259 4666 
L 1259 2753 
L 3553 2753 
L 3553 4666 
L 4184 4666 
L 4184 0 
L 3553 0 
L 3553 2222 
L 1259 2222 
L 1259 0 
L 628 0 
L 628 4666 
z
" transform="scale(0.015625)"/>
     </defs>
     <use xlink:href="#DejaVuSans-48"/>
     <use xlink:href="#DejaVuSans-61" x="75.195312"/>
     <use xlink:href="#DejaVuSans-6e" x="136.474609"/>
     <use xlink:href="#DejaVuSans-64" x="199.853516"/>
     <use xlink:href="#DejaVuSans-20" x="263.330078"/>
     <use xlink:href="#DejaVuSans-6d" x="295.117188"/>
     <use xlink:href="#DejaVuSans-6f" x="392.529297"/>
     <use xlink:href="#DejaVuSans-6e" x="453.710938"/>
     <use xlink:href="#DejaVuSans-69" x="517.089844"/>
     <use xlink:href="#DejaVuSans-74" x="544.873047"/>
     <use xlink:href="#DejaVuSans-6f" x="584.082031"/>
     <use xlink:href="#DejaVuSans-72" x="645.263672"/>
     <use xlink:href="#DejaVuSans-20" x="686.376953"/>
     <use xlink:href="#DejaVuSans-2b" x="718.164062"/>
     <use xlink:href="#DejaVuSans-20" x="801.953125"/>
     <use xlink:href="#DejaVuSans-72" x="833.740234"/>
     <use xlink:href="#DejaVuSans-65" x="872.603516"/>
     <use xlink:href="#DejaVuSans-70" x="934.126953"/>
     <use xlink:href="#DejaVuSans-6c" x="997.603516"/>
     <use xlink:href="#DejaVuSans-61" x="1025.386719"/>
     <use xlink:href="#DejaVuSans-79" x="1086.666016"/>
    </g>
   </g>
   <g id="line2d_74">
    <path d="M 471.744844 15.298437 
L 481.744844 15.298437 
L 491.744844 15.298437 
" style="fill: none; stroke: #008c82; stroke-width: 1.8; stroke-linecap: square"/>
    <g>
     <use xlink:href="#m30b6b7d08d" x="481.744844" y="15.298437" style="fill: #008c82; stroke: #008c82"/>
    </g>
   </g>
   <g id="text_27">
    <!-- Immediate skill reuse -->
    <g transform="translate(499.744844 18.798437) scale(0.1 -0.1)">
     <defs>
      <path id="DejaVuSans-49" d="M 628 4666 
L 1259 4666 
L 1259 0 
L 628 0 
L 628 4666 
z
" transform="scale(0.015625)"/>
     </defs>
     <use xlink:href="#DejaVuSans-49"/>
     <use xlink:href="#DejaVuSans-6d" x="29.492188"/>
     <use xlink:href="#DejaVuSans-6d" x="126.904297"/>
     <use xlink:href="#DejaVuSans-65" x="224.316406"/>
     <use xlink:href="#DejaVuSans-64" x="285.839844"/>
     <use xlink:href="#DejaVuSans-69" x="349.316406"/>
     <use xlink:href="#DejaVuSans-61" x="377.099609"/>
     <use xlink:href="#DejaVuSans-74" x="438.378906"/>
     <use xlink:href="#DejaVuSans-65" x="477.587891"/>
     <use xlink:href="#DejaVuSans-20" x="539.111328"/>
     <use xlink:href="#DejaVuSans-73" x="570.898438"/>
     <use xlink:href="#DejaVuSans-6b" x="622.998047"/>
     <use xlink:href="#DejaVuSans-69" x="680.908203"/>
     <use xlink:href="#DejaVuSans-6c" x="708.691406"/>
     <use xlink:href="#DejaVuSans-6c" x="736.474609"/>
     <use xlink:href="#DejaVuSans-20" x="764.257812"/>
     <use xlink:href="#DejaVuSans-72" x="796.044922"/>
     <use xlink:href="#DejaVuSans-65" x="834.908203"/>
     <use xlink:href="#DejaVuSans-75" x="896.431641"/>
     <use xlink:href="#DejaVuSans-73" x="959.810547"/>
     <use xlink:href="#DejaVuSans-65" x="1011.910156"/>
    </g>
   </g>
   <g id="line2d_75">
    <path d="M 471.744844 29.976562 
L 481.744844 29.976562 
L 491.744844 29.976562 
" style="fill: none; stroke: #b36f85; stroke-width: 1.8; stroke-linecap: square"/>
    <g>
     <use xlink:href="#m1e9f32fd7a" x="481.744844" y="29.976562" style="fill: #b36f85; stroke: #b36f85"/>
    </g>
   </g>
   <g id="text_28">
    <!-- Delayed skill reuse -->
    <g transform="translate(499.744844 33.476562) scale(0.1 -0.1)">
     <defs>
      <path id="DejaVuSans-44" d="M 1259 4147 
L 1259 519 
L 2022 519 
Q 2988 519 3436 956 
Q 3884 1394 3884 2338 
Q 3884 3275 3436 3711 
Q 2988 4147 2022 4147 
L 1259 4147 
z
M 628 4666 
L 1925 4666 
Q 3281 4666 3915 4102 
Q 4550 3538 4550 2338 
Q 4550 1131 3912 565 
Q 3275 0 1925 0 
L 628 0 
L 628 4666 
z
" transform="scale(0.015625)"/>
     </defs>
     <use xlink:href="#DejaVuSans-44"/>
     <use xlink:href="#DejaVuSans-65" x="77.001953"/>
     <use xlink:href="#DejaVuSans-6c" x="138.525391"/>
     <use xlink:href="#DejaVuSans-61" x="166.308594"/>
     <use xlink:href="#DejaVuSans-79" x="227.587891"/>
     <use xlink:href="#DejaVuSans-65" x="286.767578"/>
     <use xlink:href="#DejaVuSans-64" x="348.291016"/>
     <use xlink:href="#DejaVuSans-20" x="411.767578"/>
     <use xlink:href="#DejaVuSans-73" x="443.554688"/>
     <use xlink:href="#DejaVuSans-6b" x="495.654297"/>
     <use xlink:href="#DejaVuSans-69" x="553.564453"/>
     <use xlink:href="#DejaVuSans-6c" x="581.347656"/>
     <use xlink:href="#DejaVuSans-6c" x="609.130859"/>
     <use xlink:href="#DejaVuSans-20" x="636.914062"/>
     <use xlink:href="#DejaVuSans-72" x="668.701172"/>
     <use xlink:href="#DejaVuSans-65" x="707.564453"/>
     <use xlink:href="#DejaVuSans-75" x="769.087891"/>
     <use xlink:href="#DejaVuSans-73" x="832.466797"/>
     <use xlink:href="#DejaVuSans-65" x="884.566406"/>
    </g>
   </g>
   <g id="line2d_76">
    <path d="M 627.087031 15.298437 
L 637.087031 15.298437 
L 647.087031 15.298437 
" style="fill: none; stroke-dasharray: 6.66,2.88; stroke-dashoffset: 0; stroke: #263842; stroke-width: 1.8"/>
    <g>
     <use xlink:href="#m8a7f732960" x="637.087031" y="15.298437" style="fill: #263842; stroke: #263842"/>
    </g>
   </g>
   <g id="text_29">
    <!-- Oracle + skills -->
    <g transform="translate(655.087031 18.798437) scale(0.1 -0.1)">
     <defs>
      <path id="DejaVuSans-4f" d="M 2522 4238 
Q 1834 4238 1429 3725 
Q 1025 3213 1025 2328 
Q 1025 1447 1429 934 
Q 1834 422 2522 422 
Q 3209 422 3611 934 
Q 4013 1447 4013 2328 
Q 4013 3213 3611 3725 
Q 3209 4238 2522 4238 
z
M 2522 4750 
Q 3503 4750 4090 4092 
Q 4678 3434 4678 2328 
Q 4678 1225 4090 567 
Q 3503 -91 2522 -91 
Q 1538 -91 948 565 
Q 359 1222 359 2328 
Q 359 3434 948 4092 
Q 1538 4750 2522 4750 
z
" transform="scale(0.015625)"/>
     </defs>
     <use xlink:href="#DejaVuSans-4f"/>
     <use xlink:href="#DejaVuSans-72" x="78.710938"/>
     <use xlink:href="#DejaVuSans-61" x="119.824219"/>
     <use xlink:href="#DejaVuSans-63" x="181.103516"/>
     <use xlink:href="#DejaVuSans-6c" x="236.083984"/>
     <use xlink:href="#DejaVuSans-65" x="263.867188"/>
     <use xlink:href="#DejaVuSans-20" x="325.390625"/>
     <use xlink:href="#DejaVuSans-2b" x="357.177734"/>
     <use xlink:href="#DejaVuSans-20" x="440.966797"/>
     <use xlink:href="#DejaVuSans-73" x="472.753906"/>
     <use xlink:href="#DejaVuSans-6b" x="524.853516"/>
     <use xlink:href="#DejaVuSans-69" x="582.763672"/>
     <use xlink:href="#DejaVuSans-6c" x="610.546875"/>
     <use xlink:href="#DejaVuSans-6c" x="638.330078"/>
     <use xlink:href="#DejaVuSans-73" x="666.113281"/>
    </g>
   </g>
  </g>
 </g>
 <defs>
  <clipPath id="p5653f23e84">
   <rect x="40.603125" y="68.968" width="320.01" height="227.8"/>
  </clipPath>
  <clipPath id="pf8a11c68fe">
   <rect x="374.913125" y="68.968" width="320.01" height="227.8"/>
  </clipPath>
  <clipPath id="p0c17b7389b">
   <rect x="709.223125" y="68.968" width="320.01" height="227.8"/>
  </clipPath>
 </defs>
</svg>
